ply
format ascii 1.0
comment Generated by PyMesh
element vertex 264
property float x
property float y
property float z
property float charge
property float hbond
property float hphob
property float nx
property float ny
property float nz
property float si
element face 455
property list uchar int vertex_indices
end_header
123.982 -14.1543 -2.0545 -1.04394 -0.079787 -3.5 0.779348 -0.403674 -0.479233 -0.999861
137.731 -19.975 1.59625 0.026947 0 1.8 -0.149086 0.898739 0.41236 -0.9999
132.164 -9.17075 12.6923 0.890666 0 -4.44439 0.494682 -0.340183 0.799728 -0.999886
133.12 -9.0035 -10.795 -0.541858 -0.230621 1.9 0.203339 0.807861 0.553186 -0.999873
130.969 -14.9875 4.2405 -1.88304 0 1.8 0.801059 0.285998 0.525841 -0.378956
121.753 -21.0588 -5.5085 0.675957 0.662283 -0.357866 0.716478 -0.163464 0.678188 0.999901
139.97 -19.8132 -1.79225 -0.166352 0 4.2 0.377276 0.907318 0.185572 0.999882
130.694 -1.83125 -0.81225 0.853972 0 -0.463024 0.907554 -0.165126 -0.386108 -0.999909
122.94 -19.8512 -0.644375 -1.48701 -0.518742 -3.5 0.696292 0.285374 -0.658588 -0.756083
133.08 -5.39488 9.46975 0.396282 0.148885 -3.9 0.939411 0.142253 0.311884 0.41963
132.744 -20.562 2.47025 0.124531 0 1.30829 0.326202 0.944589 -0.0366633 0.353013
138.589 -19.3288 -1.18288 -0.265728 0 1.8 0.469751 0.851562 0.23276 0.149805
134.726 -11.8212 -11.9668 0.122852 0 1.9 0.877605 0.347808 -0.329907 0.999891
121.881 -20.7013 -1.7405 -1.31946 -0.863736 -3.5 0.645142 0.201036 -0.73714 -0.406805
129.667 -12.3845 11.9101 4.40058 0 -3.5 0.18441 -0.646041 0.740691 -0.999905
130.692 -3.36425 -0.16075 0.264979 0 -0.4 0.832823 -0.41464 -0.366713 -0.89653
130.547 -6.44075 2.43175 0.366508 0 4.2 0.76055 -0.395513 -0.51491 -0.735026
130.576 -7.406 4.1065 0.291506 0 4.2 0.837384 -0.498725 -0.223745 -0.709929
131.564 -19.8447 -6.2805 0.190675 -0.00385876 -1.34317 -0.711052 0.359515 0.60428 0.812187
134.12 -19.1402 -11.7203 0.138434 0.211173 1.71275 0.0997858 -0.53772 -0.837198 -0.999879
127.923 -10.1423 -2.67863 0.680023 0 -4.5 0.705684 -0.550952 -0.44549 -0.999866
127.974 -8.891 1.32887 0.458272 0 -0.7 0.916273 0.0619691 -0.395733 0.7881
131.827 -20.5268 1.27225 0.335879 0.646689 -0.644718 -0.282803 0.936932 -0.20538 0.128314
135.443 -20.399 -9.206 0.281763 -0.0253887 -1.40281 0.462977 -0.622698 -0.630793 0.87976
125.469 -13.1818 -6.64687 0.737299 0 1.9 0.0652831 0.483779 0.872752 0.664905
136.248 -20.1551 0.634 -0.273079 0 -0.676757 -0.0836672 0.862256 0.499514 0.685195
127.441 -3.1885 -1.147 0.659037 0 -0.4 -0.389245 0.0341345 -0.920502 0.999885
142.432 -14.854 -5.0795 -0.097867 0 4.2 0.087564 0.59879 0.796105 -0.999863
131.299 -16.9161 3.98263 -1.60843 -0.147879 1.8 0.846652 -0.207056 0.490212 -0.689394
129.284 -22.3936 -2.53787 0.53883 0 2.5 -0.503732 0.849786 0.155299 -0.0881744
121.952 -19.5522 -5.23275 -0.0756181 0 -0.120929 0.574908 -0.131793 0.807534 0.201078
138.999 -17.0795 -11.348 0.557131 0 -1.6 0.654678 0.146088 -0.741657 -0.999879
131.526 -16.3069 -5.57575 0.258009 0 -0.4 -0.129453 0.230677 0.964381 -0.474603
142 -15.4975 -8.6465 -0.153625 0 4.2 0.569077 0.0197163 -0.822048 -0.999927
127.476 -12.9214 -8.42288 -0.00793205 0 1.9 0.304245 0.947279 0.100488 0.57732
124.803 -11.8585 -1.4105 0.193391 -0.262816 -3.70653 0.28584 -0.669385 -0.685725 0.669432
128.781 -13.4937 -7.12187 -0.222643 0 1.9 0.252388 0.756799 0.602955 -0.274409
134.91 -10.3511 8.4565 0.852641 0.634799 -3.5 0.860177 -0.495716 -0.119838 -0.999892
133.576 -1.92025 4.06625 2.25321 0.0904937 -3.9 0.796493 0.0448282 -0.602984 -0.999929
130.874 -21.405 -2.17575 0.254273 0 2.5 -0.584153 0.80756 -0.0813111 0.0323781
135.27 -20.271 4.029 0.0478325 0 4.2 -0.108435 0.944664 -0.309598 -0.999914
126.251 -23.077 -3.767 0.695042 0 -0.4 -0.570786 0.766867 0.29346 -0.578484
134.464 -20.7668 -10.5752 -1.27594 -0.0605372 -0.4 0.529592 -0.643675 -0.552463 -0.999885
133.708 -4.53937 8.37463 0.263905 0 -3.9 0.92018 0.186182 0.344391 -0.4083
141.756 -17.3166 -8.18312 -0.0602854 0 4.2 0.64772 -0.417303 -0.63743 -0.999923
123.603 -18.6842 -5.82688 -0.0720731 0 1.9 0.432861 -0.0857685 0.897371 -0.800466
132.956 -2.58025 8.1505 0.212706 0 -3.9 0.794211 0.300618 0.52807 -0.999893
123.553 -20.9906 -6.26263 0.156304 0 1.55523 0.182564 -0.0547402 0.981669 0.99983
138.535 -14.5771 -5.69987 -0.53381 -0.443255 4.2 -0.299793 0.685684 0.663296 -0.711444
139.553 -15.7205 -10.3711 0.241582 0 -1.38821 0.482067 0.403413 -0.777734 -0.394426
130.085 -16.5152 -6.12 0.443592 0 -0.4 -0.167832 -0.147799 0.974673 -0.156104
134.507 -10.4359 -11.1962 0.163626 0 1.9 0.819777 0.572629 -0.00790935 -0.999843
132.444 -19.8749 -4.27962 -0.67943 -0.348815 -3.5 -0.808179 0.471868 0.352401 0.560771
124.497 -13.2933 -0.678312 -0.524187 -0.00247826 -3.5 0.596039 -0.492541 -0.634147 0.182557
128.755 -21.7829 -5.91619 0.643265 0 4.29241 -0.0205353 0.845056 0.534283 0.772151
125.141 -24.1599 -1.40594 0.675242 0 -0.4 0.0188852 0.989281 -0.144801 0.474092
127.365 -9.004 -3.554 0.333188 0 -4.5 0.646489 -0.364015 -0.670481 -0.362565
118.725 -16.2985 -1.28262 0.288631 0 1.9 0.92942 0.362874 0.0670945 0.999884
129.25 -6.35781 1.53781 0.808905 0 4.2 0.627232 -0.418621 -0.656762 0.185251
130.304 -20.8053 1.97156 0.474376 0 4.2 -0.248716 0.657754 -0.710985 0.999732
129.207 -12.7539 -9.69825 -0.270996 -0.268028 1.85372 -0.300425 0.774335 0.556911 0.999836
125.394 -17.2236 -6.65112 0.847512 0.115598 1.9 0.0900399 -0.286478 0.953846 0.797629
140.864 -16.7468 -9.46275 0.0168937 0 3.21725 0.673761 -0.0434709 -0.73767 -0.236352
127.585 -12.493 -10.22 -0.110758 0 1.8 0.236059 0.822128 0.518056 0.999909
135.886 -16.2051 -6.59075 0.114615 -0.141002 -0.928971 -0.265546 0.665633 0.697437 0.841562
126.33 -23.736 -2.35987 0.841727 0 -0.4 -0.424656 0.876781 0.225658 0.148599
129.806 -8.49063 5.33675 0.322407 0 4.2 0.84555 -0.431598 -0.314275 0.499719
125.639 -23.8438 0.207188 0.594389 0 -1.01742 0.0112335 0.848589 -0.528934 0.999784
137.7 -16.7738 -12.0868 0.0512162 0 -1.6 0.554412 0.525047 -0.645719 0.999862
141.606 -13.9943 -8.295 -0.41494 0 4.2 0.421891 0.574349 -0.701521 -0.999763
136.943 -13.3679 -9.79688 0.530809 0 1.9 0.746047 0.502396 -0.437049 -0.556086
123.762 -16.3954 1.88013 -0.20317 0 -3.5 0.453514 -0.0946949 -0.886204 0.999803
124.618 -11.6421 -7.24913 1.35443 0 1.9 0.158751 0.549838 0.820046 -0.999873
134.883 -14.6239 -7.19444 -0.25464 0 1.9 -0.0117527 0.102348 0.994679 0.737827
130.855 -1.30975 1.154 0.233691 0 -0.4 0.978936 -0.113957 -0.169405 0.999848
132.925 -2.95937 3.12875 2.68785 0.236369 -3.9 0.745345 -0.0883373 -0.660801 -0.865033
120.908 -16.365 -4.60537 0.51295 0 1.8 0.751713 -0.078286 0.654828 0.696489
122.567 -15.0876 -1.17175 -2.50739 -0.569379 -3.5 0.172985 -0.913137 -0.369129 -0.2633
133.412 -5.70563 6.80819 0.305678 0 -3.9 0.822732 -0.404527 -0.399338 -0.215663
127.389 -8.19588 -0.470875 0.527626 0.0478511 -3.44411 0.9958 0.0900585 -0.0165005 0.547797
129.786 -18.6298 -7.18262 1.20988 0.698739 -0.4 -0.0834567 -0.213645 0.97334 0.795113
132.079 -14.9478 -6.24144 0.105843 0 -0.4 0.131174 0.424817 0.895725 -0.518296
133.899 -6.60775 8.01125 0.474952 0.758074 -3.5 0.992821 0.0756903 -0.0926156 -0.333445
121.044 -14.7122 -0.311563 -1.3805 0.0315832 -3.53298 -0.23478 -0.800208 -0.551857 0.583332
130.349 -12.594 -8.45956 -0.246805 -0.0252581 1.9 -0.275807 0.802103 0.529681 -0.0812348
135.578 -16.5769 -2.83575 -1.55537 -0.0035357 -3.5 -0.200718 0.977788 0.0603564 -0.503678
134.138 -4.01519 6.74675 0.352095 0 -3.9 0.994285 -0.0839489 0.0659498 -0.662031
139.537 -18.7663 -7.34669 -0.386511 -0.320751 1.48677 0.557707 -0.671356 -0.488102 0.999843
129.156 -22.1303 -4.27744 0.545764 0 2.5 -0.193324 0.943548 0.268967 0.115744
131.286 -12.7166 11.2173 20.6857 0 -3.5 0.397749 -0.788619 0.46891 -0.83828
122.41 -14.012 -3.31625 0.146016 0 -3.5 0.594596 -0.421803 -0.684498 -0.227699
128.521 -23.4801 -1.53425 1.15993 0.469636 0.826622 -0.471664 0.87762 0.0855406 0.747007
136.66 -20.8389 2.48012 0.073808 0 4.2 -0.210207 0.950325 0.229555 0.999875
135.058 -13.2983 -12.7565 -0.0686937 -0.077644 3.8 0.778591 0.482183 -0.401616 0.999815
140.045 -20.5724 -6.32562 -0.192129 0 4.2 0.503631 -0.513072 -0.695063 -0.999885
130.452 -14.4397 -6.722 -0.232587 0 1.79695 -0.0139721 0.453751 0.891019 -0.0466411
131.602 -13.1904 -7.527 -0.108434 0 0.726054 -0.0832996 0.602152 0.794024 -0.17399
128.263 -23.0838 0.025 0.910971 0.10965 -0.929214 -0.369816 0.786265 -0.494999 0.648101
137.082 -16.3951 -4.929 -1.02034 -0.343976 3.64928 -0.278612 0.755334 0.593165 -0.0866959
129.245 -2.59975 -2.0555 0.132446 0 -0.4 0.416615 -0.437813 -0.796713 -0.999892
139.681 -18.4989 -10.3145 0.423211 0 -1.6 0.6774 -0.633102 -0.374581 -0.999811
128.624 -15.2414 9.11563 2.9756 0 1.8 0.641603 -0.542346 0.542408 -0.999862
125.244 -5.9385 -3.83469 1.11086 0.517436 -4.5 0.429425 0.821945 -0.374166 -0.999851
130.018 -18.1505 4.97056 -0.836755 -0.642736 2.0755 0.842299 0.185057 0.506247 0.369774
133.647 -11.0831 9.56487 0.252382 0.0724134 -3.5 0.690677 -0.718139 0.085095 -0.391883
120.211 -18.714 -2.92925 -0.265856 0 1.49188 0.968731 0.22834 0.0970628 0.656716
126.188 -17.6637 2.22969 0.32941 0 -3.5 0.0314241 -7.95611e-05 -0.999506 0.68222
121.727 -18.0527 -5.03125 0.377167 0 -0.8 0.6313 0.0748206 0.771921 0.209751
128.568 -11.4371 0.888 0.453024 0 -0.7 0.740447 0.363525 -0.565321 0.09072
129.842 -12.433 7.26862 -2.9437 0 -0.464562 0.86523 -0.225374 -0.447866 0.348591
125.834 -4.46462 -0.64825 0.941963 0.0582608 1.63122 -0.0255153 0.325516 -0.945192 0.999905
133.733 -16.9745 -5.4745 0.339746 0.0873976 -3.5 -0.10236 0.8171 0.567337 -0.0718895
132.462 -4.56112 10.7804 0.180139 0 -4.5 0.846914 0.423993 0.320884 -0.999892
139.281 -16.6017 -4.74762 -0.506618 0 4.2 0.0150231 0.356184 0.934295 0.401427
120.538 -21.909 -3.461 0.65565 -0.0171059 -1.04312 0.957503 0.0905613 -0.273838 0.999882
132.566 -20.3905 -2.81775 -0.607812 -0.602583 -1.51528 -0.782214 0.622792 0.0164651 0.826397
133.991 -16.0943 -6.917 0.0323233 0.717004 -3.5 0.200704 0.441784 0.874383 0.749411
123.993 -10.1284 -4.87887 0.921807 0 -4.5 0.296844 -0.815726 -0.496463 -0.999798
131.292 -18.2609 -6.50269 0.64681 0 -0.4 -0.48061 -0.157354 0.862702 0.85643
133.117 -13.928 -6.88562 -0.573581 0 0.512404 0.0654588 0.301504 0.951215 -0.234462
126.697 -11.4147 -1.43912 0.898872 0.362447 -4.5 0.456359 -0.730283 -0.508353 -0.256548
132.243 -12.1052 8.92919 0.0622837 0 -3.5 0.562579 -0.767362 -0.307668 -0.535273
130.812 -6.87206 5.827 0.285654 0 -2.54683 0.726361 -0.502856 -0.468546 0.648039
129.705 -19.727 7.32 0.842592 0 4.2 0.735376 0.513274 0.44246 0.999844
127.838 -22.8954 -3.28312 0.696552 0 2.5 -0.332672 0.862868 0.380509 0.220986
133.438 -8.11038 11.9897 1.55994 0.809223 -4.5 0.942045 -0.0489705 0.331893 -0.999859
132.163 -5.68269 5.51894 0.435456 0 -3.9 0.524992 -0.647133 -0.552812 0.236623
130.392 -13.1966 9.33187 1.43125 0 1.8 0.649595 -0.752632 0.107572 -0.0825972
131.906 -1.3125 3.172 2.42946 0 -3.9 0.629324 0.139323 -0.764552 0.999885
125.182 -5.60875 -1.70775 1.14473 0.0186503 -0.4 0.324443 0.821185 -0.46946 0.999875
128.306 -8.80713 -2.04675 1.59777 0.776529 -4.5 0.999225 0.0362567 -0.0153151 -0.660707
121.025 -19.2517 -1.25025 -0.899113 -0.124966 0.430142 0.680815 0.363829 -0.635703 0.43726
139.439 -12.6482 -7.5375 1.36442 0.189708 4.2 -0.0583278 0.992497 0.10746 -0.849346
133.265 -4.39731 4.7725 0.752217 0 -3.9 0.735727 -0.495413 -0.461814 -0.610203
131.596 -3.59188 9.87344 -0.00791521 0 -3.9 0.628544 0.577837 0.520612 0.999898
127.989 -7.29694 0.842188 0.971859 0.508046 4.2 0.798055 -0.292617 -0.526768 0.510827
139.995 -15.0351 -4.72813 -0.190467 0 4.2 -0.10202 0.431174 0.896483 -0.624365
132.518 -18.1846 -5.28581 0.442424 0 -3.01179 -0.708897 0.228599 0.667239 0.0778344
127.809 -17.8104 -6.59294 1.26168 0 1.9 0.0505547 -0.274964 0.960125 -0.191732
142.501 -13.604 -6.45825 -0.0843471 0 4.2 0.210884 0.921566 0.325952 -0.999905
135.262 -12.7043 -7.09731 -0.978206 0 1.9 0.252834 0.524329 0.813114 -0.57204
125.246 -7.37563 -5.52225 0.377207 0 -4.5 0.531062 0.360016 -0.767047 -0.999877
129.248 -15.0303 -0.139875 0.22166 0 1.8 -0.35925 -0.240393 -0.901749 -0.32131
129.916 -16.9333 0.603 0.266275 0 1.8 -0.179662 -0.723284 -0.666769 -0.400487
139.264 -19.4871 0.291375 -0.0871185 0 1.8 0.145813 0.980498 0.131767 -0.999917
136.326 -15.0659 -12.7828 0.106347 0 3.8 0.774455 0.517708 -0.36359 -0.999867
139.839 -14.0698 -9.47775 -0.74525 0 4.2 0.294441 0.602229 -0.742041 -0.691016
133.46 -20.406 5.00225 0.196267 0 4.2 0.234693 0.971701 -0.0267608 -0.999811
132.226 -14.2249 0.05475 0.190894 0 1.8 0.801903 0.434541 -0.410031 -0.999868
141.22 -18.886 -7.2355 -0.108668 0 4.2 0.475639 -0.700487 -0.532057 -0.99983
129.806 -11.4584 2.53825 0.446813 0 -0.7 0.880954 0.472372 0.0280176 -0.366336
130.991 -9.51412 -10.7315 -0.0374529 0 1.9 -0.313448 0.625467 0.714521 -0.999888
120.746 -20.0006 -3.64875 -0.0197049 0 -0.8 0.93547 0.0299734 0.352132 0.18001
137.612 -17.2059 -3.76144 -0.467511 -0.59479 -1.78669 0.444809 0.739066 0.505891 0.0461017
130.724 -11.122 -9.65594 -0.00338543 0 1.9 -0.448453 0.549034 0.705302 0.0743802
133.165 -10.214 7.49213 0.170312 0 -3.5 0.365143 -0.488791 -0.792309 -0.503279
126.558 -21.6196 -5.49813 0.75067 0 4.5 -0.120724 0.590356 0.798064 -0.245356
134.158 -2.50325 6.15688 0.26237 0.00421568 -3.9 0.982352 -0.115269 -0.1473 -0.99988
128.86 -11.0498 -10.6547 -1.50309 0 1.8 -0.339613 0.463717 0.818309 0.999904
127.801 -10.1136 -0.599813 0.432584 0 -4.45679 0.970569 -0.165887 -0.174577 -0.0629187
131.192 -20.8554 6.393 0.458138 0 4.2 0.591398 0.668324 0.451211 0.999837
135.051 -22.0415 -9.065 0.227689 0.204542 -0.7 0.685162 -0.223147 -0.693367 0.999918
128.738 -18.5478 7.73725 0.986749 0 4.2 0.870995 0.19781 0.44971 0.999842
125.816 -15.7942 -5.83094 1.05554 0 1.9 0.0206901 -0.169624 0.985292 -0.401081
126.991 -23.8813 -0.904688 1.54597 0.216309 -0.4 -0.241652 0.970346 -0.00571488 0.590938
134.391 -10.9155 -8.60994 -0.250845 0 1.9 0.494279 0.743165 0.450993 -0.549671
121.79 -12.5296 -2.74156 -0.00425478 -0.361243 -3.5 0.812841 -0.0303974 -0.581692 0.999867
133.698 -17.4665 -3.9255 -0.124363 0 -3.5 -0.653606 0.720308 0.232283 -0.329888
125.422 -24.2367 -4.40188 1.71258 0 -0.4 -0.592133 0.796018 0.125436 0.999895
122.715 -12.4447 -6.24 0.656502 0 1.83653 0.409703 0.423776 0.80781 0.999839
130.011 -14.1811 5.82569 24.909 0 1.8 0.973046 0.209648 0.0960658 -0.0960212
139.794 -18.3499 -4.09503 -0.367029 0 4.2 0.213572 0.488828 0.845833 0.61728
123.357 -22.771 -0.292781 -0.239651 0 -2.87572 0.618169 0.497607 -0.608485 0.419253
123.587 -24.2695 -2.90138 0.937524 0 -0.4 0.199047 0.924925 -0.323874 0.99985
129.823 -16.1441 5.30303 0.914284 -0.541456 1.8 0.860279 -0.128792 0.493287 0.450325
129.086 -12.3184 4.88269 2.24357 0 -0.7 0.988643 0.129589 -0.0760962 0.782294
121.254 -11.6585 -4.7055 0.736092 0 1.8 0.999147 -0.0341058 0.0232679 0.99988
119.548 -15.851 0.1695 0.929655 0 -3.9 0.34102 0.200888 -0.918341 0.685681
122.2 -16.1171 -5.52112 0.338653 0 1.86921 0.416434 -0.0711334 0.906379 0.801838
135.756 -18.1887 -12.0996 0.259819 0.108624 -0.100844 0.102864 -0.5159 -0.85045 0.999924
133.723 -9.40759 10.5822 0.36618 0.0497024 -3.6861 0.919734 -0.0273673 0.391587 -0.283311
123.989 -20.8453 1.12609 0.214786 0 -3.5 0.666429 0.124374 -0.735121 0.583504
128.728 -9.77325 2.5435 0.326608 0 -0.7 0.910728 0.195986 -0.363543 0.210019
122.47 -10.6755 -4.398 0.759533 0 -4.5 0.423888 -0.733938 -0.530711 0.999848
130.128 -9.684 6.3645 0.347295 0 4.2 0.661426 -0.259808 -0.703573 0.387573
134.743 -20.8458 2.45991 -0.0326234 0 -0.7 0.0304498 0.995358 0.0912997 0.559661
133.539 -18.3368 -2.31888 -1.41298 0 -3.5 -0.818102 0.57154 -0.0636518 0.178122
138.004 -18.587 -2.72584 -0.539599 0 4.2 0.58386 0.718779 0.377446 0.82885
132.352 -19.6987 -0.39725 0.302081 0.0992522 -0.7 -0.716545 0.688869 0.109649 -0.241382
127.206 -5.798 -1.1445 0.656744 0.491183 0.346761 0.666454 0.174783 -0.724769 -0.0864037
129.038 -10.166 4.61575 0.952621 0 2.22692 0.976804 -0.0376438 -0.210799 0.456269
119.975 -16.6402 -2.85087 1.094 0.954571 1.8 0.893761 0.096833 0.437967 0.156174
126.98 -13.2019 -6.41612 0.355282 0 1.9 0.141281 0.517014 0.844237 -0.546854
130.829 -21.5952 -4.41012 0.508838 0 2.5 -0.513134 0.82852 0.224162 0.738242
120.434 -17.1081 -0.665875 0.76019 0.00484378 1.40061 0.624958 0.590437 -0.510697 0.166464
129.247 -8.25359 3.01525 0.382432 0 4.2 0.80144 -0.409242 -0.436137 0.233201
127.604 -14.7963 0.5665 0.468594 0 -0.7 -0.419352 -0.459864 -0.782731 -0.575114
135.447 -17.2013 -4.81619 -0.286059 0 -3.5 -0.250911 0.958187 0.137558 0.806035
135.498 -11.8491 -9.94287 0.085735 0 1.9 0.775969 0.619664 -0.117849 -0.202344
133.383 -7.38 9.54016 0.403239 0.311283 -3.62967 0.949146 0.22087 0.224361 0.674615
130.39 -13.0445 0.268438 1.11644 0.640536 1.8 0.338758 0.618217 -0.709261 -0.43426
130.928 -10.7783 12.4296 0.812622 0 -3.5 0.315729 -0.447055 0.836933 -0.999881
137.301 -14.8532 -10.4035 0.111385 0 -1.6 0.553698 0.581487 -0.596063 0.44207
137.067 -19.2375 -0.251219 -0.456663 0 1.8 0.0110687 0.764556 0.644462 0.098659
141.001 -19.5769 -3.59488 -0.164245 0 4.2 0.528699 0.473922 0.704185 -0.99988
136.997 -22.1793 -7.82075 0.40687 0.253052 0.521426 0.222843 -0.689374 -0.689278 -0.999841
131.21 -5.43203 3.86022 0.418587 0 4.02283 0.775174 -0.514235 -0.366971 0.331326
137.053 -14.3273 -6.95509 -0.172453 0 3.56731 -0.285583 0.582793 0.760786 0.03884
128.448 -16.8124 7.97638 1.18489 0.254159 3.22744 0.832014 -0.335267 0.441983 0.999828
125.14 -22.5346 1.44253 0.309411 -0.0128338 -2.60673 0.24128 0.407951 -0.880545 0.999787
124.442 -14.2932 -5.77744 0.500346 0 1.9 0.17423 0.274792 0.945586 -0.297068
122.974 -18.2364 0.466812 -0.11242 -0.158764 -3.5 0.642462 0.213089 -0.736094 0.169807
125.658 -22.9468 -5.83 1.3377 0 4.5 -0.604792 0.525451 0.598438 0.999899
128.503 -13.4032 10.7843 -0.593347 -0.0656403 1.8 0.306634 -0.814225 0.492963 0.999878
128.365 -21.5727 1.25272 0.641028 0.212598 -0.056169 -0.13063 0.606713 -0.784114 0.137055
142.209 -17.2292 -4.2765 -0.124208 0 4.2 0.169741 0.146663 0.974514 -0.999845
131.184 -10.9673 7.51613 0.241295 0 -3.5 0.38333 -0.491511 -0.781969 0.302666
123.176 -11.9681 -2.22734 0.261167 -0.929493 -3.5 0.504757 -0.415522 -0.756678 0.348607
126.122 -11.3678 -8.64587 0.524206 0 1.9 0.587279 0.77955 0.217728 -0.999881
141.662 -19.0823 -5.4215 -0.131055 0 4.2 0.842175 -0.538963 -0.0161333 -0.999721
140.685 -13.6885 -6.11513 -0.0853488 0 4.2 -0.0296828 0.755695 0.654251 -0.646698
131.391 -13.6075 2.11031 0.652673 0 1.8 0.753088 0.590551 0.290015 -0.442589
124.245 -14.45 0.867063 -0.257979 0 -3.5 0.54941 -0.611307 -0.569607 0.603124
128.891 -4.54056 -0.274812 0.853373 0 -0.4 0.634571 -0.559253 -0.533437 0.307668
132.449 -7.46725 7.04663 0.0496497 -0.163043 -3.5 0.488518 -0.249234 -0.836201 0.233331
138.271 -20.262 -10.037 -0.0036442 0 -1.6 0.624595 -0.698075 -0.350102 -0.999782
125.546 -10.5421 -2.92987 0.637715 0 -4.5 0.301983 -0.75911 -0.576679 0.147807
130.536 -4.30188 1.87566 0.306423 0 3.00134 0.760167 -0.333172 -0.557802 0.165978
127.401 -19.6566 -7.02313 0.851433 0 4.5 0.163962 0.228834 0.959558 0.523662
124.577 -9.18863 -5.9125 0.664774 0 -4.5 0.563216 -0.472766 -0.677702 -0.999815
130.586 -21.6379 -0.0930625 0.706995 0.353437 -0.506012 -0.559757 0.804391 -0.199066 0.380364
130.728 -15.3503 -0.83325 0.242018 0 1.8 -0.0527713 -0.0755692 -0.995743 -0.999852
129.93 -14.9714 7.59444 5.52653 0 1.8 0.931231 -0.310328 0.191063 -0.45945
132.737 -11.1417 11.4993 -0.0477831 0 -3.5 0.66634 -0.498093 0.554882 -0.662843
134.707 -8.74225 7.87044 0.582805 0 -3.5 0.9163 0.190178 -0.352457 -0.751687
125.027 -19.3396 -6.70372 0.67081 0 1.9 0.223471 0.0606479 0.972822 0.41913
129.709 -13.4513 3.58172 12.8459 -0.121591 0.977706 0.798589 0.478817 0.364677 0.999764
122.142 -14.184 -4.912 -2.40862 -0.438742 1.8 0.774303 -0.09681 0.625366 0.157722
137.113 -19.2881 -11.2686 0.226457 0 -1.6 0.0911315 -0.747953 -0.657465 -0.999799
123.768 -16.4145 -5.90506 0.649568 0 1.9 0.282169 -0.122863 0.951465 0.119483
128.147 -17.3284 2.09253 0.106399 0 -1.04465 -0.228016 -0.389822 -0.892215 0.206319
136.932 -17.2165 -1.22244 -5.78374 -0.169309 -3.5 0.504856 0.728973 0.462297 -0.754199
121.4 -23.2091 -2.14875 0.581857 -0.0888331 -1.30159 0.669489 0.296911 -0.680902 0.99985
132.385 -15.4951 1.89469 0.358242 0 1.8 0.95648 0.0150189 0.291412 -0.652242
132.801 -10.9019 -8.69778 0.327193 0 1.9 -0.206235 0.618061 0.758596 -0.661535
125.849 -14.0887 1.11992 0.0284448 0 -0.7 -0.0020107 -0.601507 -0.798865 0.566374
122.599 -16.2545 0.312 1.51208 0 -3.9 0.446193 -0.15608 -0.881221 0.0935477
132.306 -17.1195 0.273 0.0330798 0 1.8 0.671918 -0.639189 -0.374116 -0.999895
125.911 -19.6345 1.829 0.461678 0 -3.5 0.263191 0.137855 -0.954844 0.0938983
133.081 -5.96537 11.4955 0.56417 0 -4.5 0.962838 0.261721 0.0666689 -0.999877
138.552 -21.3971 -7.24788 -0.337845 0 4.2 0.726135 -0.489979 -0.482337 -0.99981
118.906 -14.2554 -0.277438 0.207969 0 4.2 0.622943 -0.659303 -0.421024 0.999907
137.74 -13.4057 -8.39773 0.150124 0 3.87172 0.339941 0.927999 -0.152508 -0.10936
133.985 -19.6231 0.202359 -0.557474 0 -0.7 -0.0683928 0.766703 0.638349 0.207579
129.877 -20.8281 -6.93878 0.493243 0 1.78383 -0.286104 0.451452 0.845184 0.999812
127.709 -7.1755 -3.72306 2.50341 0.29687 -4.5 0.712522 0.417705 -0.563769 -0.999814
127.063 -12.4949 -0.127078 0.0786963 0 -0.7 0.243719 -0.360308 -0.900433 -0.0889253
126.465 -15.6202 1.83825 -0.707699 0 -0.7 -0.0916289 -0.395247 -0.913993 0.604624
127.935 -15.3292 -5.76858 0.633367 0 1.9 0.124029 0.060123 0.990456 -0.598781
128.665 -18.9232 3.14478 0.110811 0 4.2 0.0288251 -0.0613964 -0.997697 0.866508
133.4 -17.599 -0.5305 -0.120237 -0.262449 -1.49603 -0.391672 0.705992 0.590058 -0.999862
120.193 -14.6635 -2.506 0.252984 0 1.8 0.436924 -0.855204 0.27879 0.427148
131.048 -18.4895 2.66825 0.00722743 -0.136266 3.16282 0.831655 0.250925 -0.495365 -0.110423
131.71 -16.8968 1.86563 0.10261 0 1.8 0.754947 -0.654726 0.0372611 -0.126519
3 233 89 201
3 89 233 121
3 14 201 89
3 233 201 2
3 104 121 233
3 127 89 121
3 213 14 89
3 125 233 2
3 155 121 104
3 104 233 180
3 213 89 127
3 121 109 127
3 125 180 233
3 155 216 121
3 37 155 104
3 104 180 37
3 101 213 127
3 109 121 216
3 127 109 232
3 180 125 199
3 184 216 155
3 234 155 37
3 180 234 37
3 101 127 232
3 109 216 184
3 109 170 232
3 125 249 199
3 234 180 199
3 224 184 155
3 234 224 155
3 101 232 208
3 184 175 109
3 170 109 175
3 174 232 170
3 249 9 199
3 234 199 82
3 224 122 184
3 224 234 82
3 174 208 232
3 175 184 190
3 236 170 175
3 4 174 170
3 112 9 249
3 82 199 9
3 122 224 126
3 184 122 66
3 82 78 224
3 208 174 162
3 66 190 184
3 150 175 190
3 4 170 236
3 236 175 150
3 174 4 28
3 112 43 9
3 82 9 43
3 224 78 126
3 206 122 126
3 122 17 66
3 82 43 78
3 174 103 162
3 190 66 195
3 182 150 190
3 236 221 4
3 221 236 150
3 4 243 28
3 174 28 103
3 112 134 43
3 133 126 78
3 17 122 206
3 206 126 133
3 17 195 66
3 78 43 86
3 162 103 123
3 190 195 182
3 182 108 150
3 243 4 221
3 150 200 221
3 243 263 28
3 262 103 28
3 43 134 46
3 133 78 86
3 195 17 206
3 133 227 206
3 43 46 86
3 160 123 103
3 195 21 182
3 182 21 108
3 200 150 108
3 148 243 221
3 221 200 148
3 243 247 263
3 263 262 28
3 160 103 262
3 86 157 133
3 195 206 16
3 227 133 75
3 16 206 227
3 86 46 157
3 135 21 195
3 21 159 108
3 200 108 256
3 148 247 243
3 148 200 231
3 143 263 247
3 263 143 262
3 262 147 160
3 157 75 133
3 16 58 195
3 75 128 227
3 58 16 227
3 135 79 21
3 135 195 58
3 21 79 159
3 108 159 256
3 200 256 142
3 231 247 148
3 231 200 142
3 231 143 247
3 262 143 259
3 10 147 262
3 38 75 157
3 75 38 128
3 74 227 128
3 223 58 227
3 189 79 135
3 58 223 135
3 159 79 130
3 256 159 120
3 196 142 256
3 231 142 143
3 259 143 240
3 59 262 259
3 147 10 185
3 262 22 10
3 74 15 227
3 15 223 227
3 79 189 130
3 189 135 223
3 159 130 20
3 120 159 20
3 120 35 256
3 196 240 142
3 245 196 256
3 143 142 240
3 259 240 248
3 22 262 59
3 259 214 59
3 10 253 185
3 40 147 185
3 253 10 22
3 7 15 74
3 15 99 223
3 130 189 255
3 99 189 223
3 130 56 20
3 120 20 226
3 35 120 226
3 53 256 35
3 257 240 196
3 257 196 245
3 256 53 245
3 248 240 106
3 248 214 259
3 59 230 22
3 230 59 214
3 253 25 185
3 40 185 92
3 22 188 253
3 15 7 99
3 129 255 189
3 130 255 56
3 26 189 99
3 56 226 20
3 217 35 226
3 35 217 53
3 106 240 257
3 222 257 245
3 245 53 222
3 71 248 106
3 214 248 209
3 22 230 188
3 230 214 97
3 25 253 203
3 92 185 25
3 188 260 253
3 255 129 102
3 110 129 189
3 56 255 229
3 189 26 110
3 226 56 229
3 217 226 117
3 53 217 0
3 71 106 257
3 71 257 222
3 53 0 222
3 211 248 71
3 181 209 248
3 67 214 209
3 39 188 230
3 97 214 67
3 91 230 97
3 253 260 203
3 203 92 25
3 260 188 186
3 141 255 102
3 255 141 229
3 229 117 226
3 117 183 217
3 217 90 0
3 71 222 246
3 222 0 77
3 181 248 211
3 71 246 211
3 209 181 172
3 67 209 172
3 188 39 115
3 39 230 29
3 164 97 67
3 29 230 91
3 164 91 97
3 260 241 203
3 1 92 203
3 188 115 186
3 186 85 260
3 166 217 183
3 90 217 166
3 90 77 0
3 246 222 77
3 8 181 211
3 211 246 131
3 8 172 181
3 55 67 172
3 193 115 39
3 29 193 39
3 164 67 55
3 91 124 29
3 164 124 91
3 260 85 241
3 241 11 203
3 144 1 203
3 186 115 167
3 167 85 186
3 183 176 166
3 237 90 166
3 90 261 77
3 83 246 77
3 131 8 211
3 131 246 194
3 13 172 8
3 173 55 172
3 115 193 52
3 88 193 29
3 65 164 55
3 88 29 124
3 164 65 124
3 85 153 241
3 241 187 11
3 11 144 203
3 167 115 52
3 85 167 197
3 176 237 166
3 90 237 261
3 77 261 83
3 177 246 83
3 13 8 131
3 246 177 194
3 194 105 131
3 242 172 13
3 168 55 173
3 172 242 173
3 18 52 193
3 193 88 54
3 65 55 168
3 156 88 124
3 124 65 41
3 98 153 85
3 187 241 153
3 11 187 6
3 144 11 6
3 52 137 167
3 111 197 167
3 85 197 98
3 176 169 237
3 191 261 237
3 251 83 261
3 83 251 177
3 114 13 131
3 57 194 177
3 194 191 105
3 105 152 131
3 13 114 242
3 18 137 52
3 18 193 254
3 54 88 156
3 54 254 193
3 41 65 168
3 124 212 156
3 212 124 41
3 98 113 153
3 153 171 187
3 204 6 187
3 111 167 137
3 111 64 197
3 98 197 64
3 169 210 237
3 57 261 191
3 237 76 191
3 57 251 261
3 57 177 251
3 114 131 152
3 194 57 191
3 107 105 191
3 107 152 105
3 118 137 18
3 254 118 18
3 228 54 156
3 54 228 254
3 212 41 168
3 212 47 156
3 98 136 113
3 171 153 113
3 187 171 204
3 32 111 137
3 111 116 64
3 64 207 98
3 210 169 24
3 237 210 239
3 237 178 76
3 76 107 191
3 5 114 152
3 107 30 152
3 32 137 118
3 80 118 254
3 228 156 235
3 228 80 254
3 156 47 235
3 136 98 48
3 113 136 215
3 215 171 113
3 215 204 171
3 32 116 111
3 116 73 64
3 73 207 64
3 48 98 207
3 24 169 72
3 210 24 192
3 239 210 163
3 237 239 178
3 76 178 107
3 152 30 5
3 45 30 107
3 50 32 118
3 118 80 50
3 138 228 235
3 80 228 138
3 47 45 235
3 136 48 220
3 215 136 27
3 204 215 219
3 116 32 81
3 116 119 73
3 207 73 140
3 48 207 132
3 192 24 72
3 163 210 192
3 163 61 239
3 107 178 239
3 5 30 47
3 47 30 45
3 45 107 239
3 50 95 32
3 80 258 50
3 235 61 138
3 258 80 138
3 239 235 45
3 48 132 220
3 136 220 27
3 32 95 81
3 119 116 81
3 140 73 119
3 207 140 252
3 252 132 207
3 192 72 218
3 163 192 258
3 61 163 138
3 239 61 235
3 95 50 258
3 163 258 138
3 139 220 132
3 27 220 139
3 81 95 96
3 96 119 81
3 119 244 140
3 252 140 198
3 132 252 146
3 218 36 192
3 192 36 258
3 36 95 258
3 139 132 69
3 96 95 36
3 119 96 244
3 140 244 165
3 140 165 198
3 70 252 198
3 202 146 252
3 132 146 69
3 36 218 34
3 84 96 36
3 96 84 244
3 244 3 165
3 165 51 198
3 252 70 202
3 93 70 198
3 146 202 49
3 62 69 146
3 63 34 218
3 84 36 34
3 244 84 154
3 244 151 3
3 165 3 51
3 198 51 12
3 202 70 93
3 12 93 198
3 202 68 49
3 49 62 146
3 69 62 33
3 34 63 60
3 84 34 60
3 84 60 154
3 151 244 154
3 145 202 93
3 68 202 145
3 49 68 31
3 31 62 49
3 33 62 44
3 158 60 63
3 154 60 158
3 158 151 154
3 100 62 31
3 149 44 62
3 100 149 62
3 100 87 149
3 225 87 100
3 94 149 87
3 87 225 250
3 94 219 149
3 87 250 94
3 225 205 250
3 225 238 205
3 205 238 23
3 23 238 42
3 161 205 23
3 238 19 42
3 161 23 42
3 179 19 238
