ply
format ascii 1.0
comment Generated by PyMesh
element vertex 341
property float x
property float y
property float z
property float charge
property float hbond
property float hphob
property float nx
property float ny
property float nz
property float si
element face 598
property list uchar int vertex_indices
end_header
-33.134 25.276 -28.93 -0.582928 0 -3.5 0.12523 -0.649177 0.750257 -0.999889
-30.344 2.729 -21.861 0.172515 0 -4.5 -0.984941 -0.00956499 -0.172626 -0.999869
-26.8125 15.974 -13.18 -0.502243 -0.957111 -0.7 -0.878899 0.391205 0.272936 -0.999898
-25.63 22.5705 -31.7105 0.202802 0.0699728 -3.5 -0.974722 -0.112213 -0.193196 -0.999917
-42.4145 16.7208 -30.3715 -0.0680419 0 2.8 0.564958 0.28076 -0.775884 -0.169888
-28.607 11.827 -13.4275 0.889538 0.513739 -4.18288 -0.661111 0.655956 0.364217 -0.430136
-41.577 12.5612 -25.091 -0.28849 0 4.2 0.197384 -0.444711 0.873654 0.999912
-26.4137 20.4132 -28.2673 0.0665896 -0.0369109 -3.5 -0.992072 0.0924758 -0.0851012 -0.263112
-29.2638 2.369 -18.2875 1.58132 0.721364 -4.5 -0.959912 -0.144401 0.240245 -0.999882
-41.9576 23.602 -34.6021 0.266069 0 3.8 -0.158645 0.970829 -0.179787 0.273611
-43.8548 19.7992 -23.6945 -0.0747197 -0.402168 0.886322 0.588984 0.712779 0.380845 0.999901
-39.548 16.2997 -19.2698 -0.822688 -0.0454265 -3.5 0.890189 -0.082496 -0.448061 0.999894
-31.4722 14.6095 -37.0695 -0.18328 0 2.8 0.759037 -0.511091 0.403297 0.478083
-27.6686 6.47563 -13.3558 0.813902 0.101846 -3.81325 -0.675181 -0.463356 0.573962 0.637109
-26.8099 17.6066 -23.4438 -0.440194 -0.126008 -1.47883 -0.897573 0.370962 -0.23822 0.745027
-29.9653 8.3005 -15.5157 0.672013 0 -4.5 -0.993008 0.116224 -0.020679 -0.375387
-33.6685 5.52437 -27.0905 0.850911 0 -1.56729 0.799715 -0.175188 0.574252 -0.310049
-37.664 7.663 -21.554 0.290783 0 -3.5 0.624542 0.739283 0.251809 -0.999859
-33.1702 15.1969 -32.5165 0.249923 0 2.8 0.257543 -0.000942077 0.966266 -0.503446
-28.5907 5.36587 -27.2319 1.72938 0 4.10217 -0.8813 0.447105 -0.152994 0.669765
-29.7073 12.481 -17.8935 0.49851 0 -1.6 -0.622852 -0.777786 -0.0842928 -0.490119
-30.1075 14.6285 -20.69 0.750324 0 -1.6 -0.798751 -0.102229 -0.592913 -0.565364
-28.1441 8.73787 -23.722 0.3602 0 4.5 -0.647056 0.712476 -0.27147 -0.621142
-47.2397 21.5629 -36.801 2.19801 0 4.2 -0.355865 0.670277 -0.651222 0.999919
-33.553 4.0145 -27.3065 -0.730302 -0.537956 -0.478726 0.620755 0.374847 0.688587 0.99987
-25.5362 9.7305 -29.8545 0.083585 -0.759865 -0.8 -0.0620134 0.975909 0.209177 0.370382
-26.9055 5.655 -12.1175 0.631419 0 -0.7 -0.889461 -0.245335 0.385578 -0.999917
-39.3691 16.9896 -28.4009 -0.283577 0 4.2 0.557343 0.421213 -0.715505 -0.179973
-40.4076 11.5282 -25.619 -0.217176 -0.743116 -1.59358 0.0392715 -0.313755 0.948691 0.999909
-28.5374 7.3565 -28.3245 10.1823 0 -0.8 -0.922015 0.315509 0.224369 -0.387545
-31.3784 14.7781 -35.4154 -0.265058 0 2.8 0.779078 -0.615014 0.121635 -0.427466
-40.2474 15.5288 -28.5093 -0.0611154 0 4.2 0.360708 0.401032 -0.842059 0.999875
-25.7092 8.8185 -20.153 0.534535 0 3.12945 -0.628591 0.752322 0.197192 0.55077
-26.782 23.0385 -26.798 -1.42007 -0.661936 -3.5 -0.992828 -0.1137 -0.0369551 -0.999898
-39.7721 21.2493 -28.3321 -1.86129 -0.154632 -3.5 0.724728 0.0191057 0.68877 -0.697449
-26.1332 19.0666 -24.1693 -0.215213 0 -3.09704 -0.979619 0.190168 -0.0646811 0.697894
-34.2192 22.6322 -30.4042 -0.0245875 0 -2.15261 0.468041 -0.374163 0.800587 0.181788
-28.2682 2.7775 -16.4575 0.513098 -0.21101 -3.26179 -0.758511 -0.514288 0.40021 0.99986
-29.2449 7.55963 -22.9199 0.480414 0 4.5 -0.797741 0.601956 -0.0354704 -0.769846
-37.4169 15.9124 -25.1777 0.0680709 0 4.2 0.842725 0.0572381 0.535293 -0.850997
-33.06 16.7615 -32.5559 0.0181717 0 3.71408 0.103124 -0.246192 0.963719 -0.22316
-38.8088 14.7314 -24.1475 0.110691 0 4.2 0.564359 -0.311017 0.764701 -0.59386
-39.8545 10.3895 -23.0575 0.431295 0 -4.5 0.86052 0.500111 -0.0969232 0.999865
-23.496 20.7205 -34.3008 0.743265 0.357655 -3.5 0.151148 0.889187 -0.431857 -0.999942
-44.9705 23.009 -34.658 0.261111 0 3.8 -0.0610266 0.905823 -0.419237 0.362087
-27.5089 9.2705 -28.9095 -0.294749 0 -0.8 -0.546993 0.751013 0.369835 -0.333268
-27.6542 15.199 -14.7797 1.11299 0.277542 -0.7 -0.82567 0.355967 0.437672 -0.106698
-28.7991 10.7635 -11.9551 1.0689 0.0825706 -4.5 -0.723385 0.411955 0.554082 -0.793884
-35.5057 5.21712 -25.016 0.397577 0 -3.5 0.740815 -0.548498 0.387742 -0.999867
-28.6875 15.547 -15.9167 0.564889 0.00156278 -1.50816 -0.540008 0.494965 0.680736 -0.499425
-29.5294 6.41488 -32.6689 -0.140502 0 -1.21856 -0.525433 -0.235183 0.817685 0.877948
-28.455 16.287 -25.882 -0.38891 0 -1.3 -0.777548 0.628823 -0.000802322 -0.710787
-38.8677 24.413 -34.2467 -0.00344614 0 -1.46522 -0.330076 0.941311 -0.0705894 0.99992
-41.6113 13.8975 -24.1565 0.9153 0.750706 4.2 0.180289 -0.691893 0.699128 0.999899
-29.3669 13.336 -24.8559 0.36378 0 -1.3 -0.927147 -0.372309 -0.0422508 -0.999848
-35.0035 23.7055 -29.6453 -0.664137 -0.0150202 -3.13544 0.0223616 -0.218514 0.975578 -0.20039
-39.9705 11.4178 -21.4705 0.716599 0.244729 -4.5 0.923857 0.315651 -0.216454 0.999882
-33.4599 23.9141 -30.054 -0.511446 0 -3.5 0.289986 -0.543318 0.787854 0.250457
-44.1818 22.1785 -38.095 0.181546 0 -1.6 -0.246205 0.969218 5.06335e-05 0.999914
-39.2108 9.36625 -24.4072 -1.34889 -0.0281229 -3.5 0.527695 0.833273 0.164908 0.999871
-30.1815 2.89575 -25.1755 0.41103 0 -3.5 -0.733274 0.403995 0.546898 0.99991
-30.2652 5.66325 -23.3019 0.409581 0 4.5 -0.966271 0.237031 -0.100683 -0.608102
-29.4585 7.13625 -21.0934 0.358663 0 4.5 -0.815821 0.523266 0.246228 -0.747189
-25.5684 12.6768 -11.452 0.333435 0 -1.08397 -0.690571 0.429264 0.582104 0.999912
-39.2918 17.9394 -19.1235 -2.61158 -0.0910297 -3.5 0.883846 -0.097321 -0.457542 0.999921
-40.0461 18.3021 -24.8167 -0.0294819 0 4.2 0.560794 0.759503 0.329646 -0.412066
-24.6182 17.9945 -17.054 -0.115587 0 1.56819 -0.47686 0.861531 0.174266 0.999889
-26.0055 22.7335 -28.4517 -0.47439 -0.0106504 -3.5 -0.952634 0.0387889 -0.301637 0.999849
-32.6585 6.301 -29.875 -0.505194 0 -0.8 0.979032 0.0818357 0.186548 -0.269127
-40.7274 19.7904 -27.8876 -0.640734 -0.272847 -2.20799 0.765925 0.191863 0.613635 0.316621
-25.518 20.8792 -31.2932 0.42275 0.394376 -3.5 -0.970729 0.0952678 -0.220476 -0.0302356
-35.4777 5.69775 -23.3768 0.332771 0 -3.5 0.89139 -0.189346 0.411791 -0.999897
-29.4264 5.9785 -17.9959 0.722454 0 -4.5 -0.937507 0.105905 -0.33146 0.0799024
-28.2202 3.77825 -29.8792 0.3109 0.286821 -1.2772 -0.909937 0.313324 -0.271741 0.999916
-29.4394 6.83238 -24.3137 4.46762 0 4.5 -0.799979 0.517659 -0.303418 -0.743518
-28.0079 5.28788 -30.4142 -0.0201241 -0.421457 -0.8 -0.991148 -0.064992 0.115764 0.825681
-33.4951 8.40506 -29.9037 -0.871445 0 -0.8 0.715777 0.533287 0.450853 0.0578719
-41.7323 16.638 -35.2323 -0.577329 0 -1.3 -0.275527 0.00560053 0.961277 0.863107
-21.7446 8.57094 -30.2862 4.28329 0 -1.56528 -0.179456 0.708099 -0.682928 0.999876
-25.6531 18.5105 -32.8731 0.0104456 0 -2.79557 -0.807102 0.582038 -0.0990861 0.554915
-27.4067 8.27725 -24.9839 0.486588 0 4.5 -0.691181 0.641468 -0.332847 0.52161
-26.9779 11.9516 -12.5894 0.193671 0 -0.971481 -0.640203 0.543136 0.543271 0.551524
-44.7256 24.2051 -31.8703 -1.03386 -0.861151 -3.5 -0.0767342 0.874769 -0.478425 0.736632
-36.4042 11.8318 -28.2795 0.268111 0 4.5 0.793012 0.330479 0.511776 -0.246341
-42.2435 21.247 -26.644 0.928542 0.197388 -3.5 0.676414 0.21679 0.703893 0.257116
-26.769 12.1009 -17.7442 -0.0436762 -0.0462339 -1.6 -0.140255 -0.736554 -0.661677 0.737661
-37.786 13.8325 -31.1339 0.293508 0.125548 2.64442 0.173487 0.973068 -0.151796 -0.0797886
-32.2961 8.55544 -30.9418 -2.26214 0 -1.3 0.514137 0.0270796 0.857281 -0.135281
-24.6003 21.5212 -33.0385 -0.0556792 0 -3.5 -0.771241 0.403407 -0.492392 -0.999819
-45.678 21.8125 -37.3975 -0.213512 0 4.2 -0.084174 0.912643 -0.399997 -0.999858
-31.9213 16.5818 -33.5591 0.000690218 0 3.20082 0.514966 -0.327735 0.792086 0.566429
-27.2887 13.3876 -13.9757 -0.463625 -0.609038 -0.7 -0.807267 0.308013 0.503435 0.460601
-31.6965 25.5168 -29.3242 -0.129028 0 -3.5 0.343456 -0.675169 0.652829 -0.999886
-28.9559 6.10269 -14.4829 1.87049 0.100478 -4.5 -0.797636 -0.333515 0.502539 -0.171313
-31.5982 10.0649 -33.9796 -0.421081 0 -1.51035 0.337664 0.880102 -0.333771 0.360394
-39.1619 17.8249 -26.6394 -0.184416 -0.447864 4.2 0.424795 0.872513 -0.241392 -0.284507
-28.5246 5.19069 -28.8224 2.5021 0.0130673 -0.8 -0.945795 0.163386 -0.280672 0.0869396
-26.9616 7.24512 -11.647 0.936116 0 -1.4021 -0.580554 -0.500051 0.642578 0.999874
-46.8901 23.0471 -35.4644 1.39755 0 -3.42143 0.00447607 0.863007 -0.505172 -0.999873
-21.0406 12.0641 -33.0267 2.61329 0 -0.579926 -0.84747 -0.506626 0.158509 0.738621
-30.8232 7.77156 -31.8643 -0.99916 0 -1.3 -0.0544008 -0.647354 0.760246 0.167252
-43.5162 23.2922 -35.6435 0.422221 0 3.8 -0.287901 0.892523 -0.347154 -0.619068
-38.7265 8.634 -21.0697 0.146792 0 -4.5 0.864953 0.50106 0.0281819 0.999913
-29.285 7.5575 -13.1275 1.05758 0.267039 -4.5 -0.669363 -0.540342 0.509886 -0.599131
-37.5361 16.7751 -27.3864 -0.013341 0 4.2 0.764771 0.53262 -0.362548 -0.999821
-39.9258 13.4965 -24.988 0.214837 0 4.2 0.29741 -0.533574 0.791736 0.0890574
-28.5214 8.87681 -30.0858 -0.0938194 0 -0.878646 -0.72128 0.29556 0.626418 -0.0486735
-26.9876 19.9729 -36.1617 -0.784818 0 0.53098 0.124286 0.702886 0.70036 0.113177
-38.6484 13.2325 -32.9178 0.430992 0 0.665332 -0.166861 0.94742 0.273044 0.708701
-27.1835 21.4393 -37.426 -1.49541 -0.704235 -3.5 0.51424 0.471727 0.716262 0.999852
-40.5189 14.5292 -30.1079 -0.0316629 0 3.55221 0.43356 0.728782 -0.530002 0.510042
-33.3226 5.55819 -33.186 -0.609266 -0.068164 -3.5 0.780507 0.0951215 0.617868 0.999901
-37.4073 19.0774 -32.5841 0.61792 0 -1.6 -0.0835628 -0.883301 0.461299 0.513097
-25.3452 11.3798 -37.1781 1.23742 0.185921 -0.8 -0.523792 -0.121086 0.843196 0.999838
-29.0197 11.3674 -31.8405 0.0286087 0 -1.3 -0.0937354 0.981488 0.167017 -0.584831
-40.6022 18.6534 -26.7183 -0.788692 0 4.2 0.702787 0.702827 0.110112 0.28388
-26.5287 17.9638 -25.6213 -0.0138295 0 -1.60035 -0.92759 0.373528 0.00734476 0.225864
-40.6358 23.2119 -28.2383 -0.056643 0 -3.5 0.688057 0.0815559 0.721059 0.108372
-34.2949 6.94594 -25.8322 3.53817 0.743456 -3.5 0.901645 0.210949 0.377541 -0.433564
-35.038 8.43325 -27.5045 3.27342 0 1.71112 0.721286 0.577375 0.382603 0.693849
-39.0996 19.6367 -30.248 -0.132677 0 -1.6 0.347902 -0.77484 0.527813 -0.155052
-29.1709 6.04875 -19.8075 0.421327 0 -2.42286 -0.903734 0.298705 0.306661 0.246987
-32.6116 10.5393 -35.1911 -0.544171 -0.708597 1.5807 0.827846 0.560337 0.0263289 0.517853
-40.0925 18.8241 -28.8491 -0.362141 -0.0979414 4.2 0.942362 -0.18024 -0.281898 -0.151053
-28.6755 13.3339 -22.9645 0.402724 0 -1.3 -0.739278 -0.670523 0.062184 -0.275063
-26.9858 4.504 -13.4788 0.536259 -0.0367235 -0.553688 -0.719438 -0.302408 0.625267 0.999882
-33.4606 13.0179 -32.5791 -0.580937 0 -3.5 0.80885 0.163576 0.564805 -0.177619
-25.252 18.6899 -19.0419 0.154065 -0.0643861 -1.41089 -0.322934 0.816087 0.479286 0.999882
-32.04 13.1325 -37.5536 -0.109636 0.0141508 -4.5 0.686946 -0.14344 0.712412 0.84847
-42.2411 24.4349 -26.5154 0.0545012 0 -3.5 0.668707 -0.148594 0.728526 -0.999889
-37.6727 17.3777 -25.6046 -0.00688811 0 4.2 0.662486 0.672177 0.33059 -0.91481
-39.2733 18.3694 -33.8833 -0.0676782 0 2.77555 -0.058337 -0.638187 0.767668 0.476369
-30.8758 21.4074 -32.4382 -0.281378 -0.028789 1.9981 0.515527 -0.277382 0.810735 0.0270252
-37.0311 22.0016 -29.9749 0.125675 0 -1.6 -0.104706 -0.0925092 0.990191 0.14938
-26.9906 12.5595 -22.0751 0.539019 0 -1.3 -0.372382 -0.919204 0.128048 -0.0299914
-25.3172 11.5619 -23.0436 0.376244 0 1.53756 -0.819487 -0.42657 0.382724 0.686095
-31.975 3.52225 -26.5222 0.711571 0.659289 -3.5 -0.125721 0.954124 0.271736 0.99982
-35.6195 21.6596 -29.5454 -0.0350188 0 -1.6 0.267906 -0.299205 0.915807 -0.99984
-36.471 6.54975 -22.148 0.346819 -0.0379311 -3.5 0.6744 0.483541 0.558007 -0.999871
-31.6036 17.8762 -32.7412 -0.0084254 0 3.8 0.351857 -0.544003 0.761747 -0.70053
-40.1253 24.002 -35.7255 -0.786821 -0.739485 -1.3 -0.2896 0.952165 -0.0975326 -0.999876
-33.7967 9.38494 -31.2856 0.950081 0 -3.5 0.449434 0.446228 0.773879 0.999829
-33.4034 11.9821 -33.8813 -0.351182 0 -3.5 0.95942 0.28158 0.0150183 0.747933
-29.2037 4.06231 -18.6488 1.13873 0 -4.5 -0.998652 0.0516686 0.00496944 0.483151
-30.8762 15.476 -18.1369 0.287068 0 -1.6 -0.876394 0.416949 0.241011 -0.999831
-29.1829 13.1077 -20.5168 0.712259 0 -1.6 -0.511334 -0.810337 -0.286166 -0.330903
-28.3679 6.85244 -26.0153 0.500076 0 4.5 -0.756835 0.5923 -0.276372 0.0669318
-27.8218 10.3086 -30.6518 0.0708869 0 -1.22754 -0.153752 0.719085 0.6777 -0.183967
-25.4492 20.568 -37.1575 -0.367027 -0.187429 -0.342515 0.000196079 0.752579 0.658502 0.999894
-26.5686 10.3759 -16.9844 0.587045 0.0484126 -4.5 -0.227119 -0.0396439 -0.97306 0.758191
-41.2858 19.5021 -30.0575 -0.220364 0 3.68839 0.306688 -0.87841 -0.366522 0.69974
-26.9457 12.2046 -37.6139 -0.430388 -0.703097 -3.5 -0.321252 -0.0704805 0.944367 0.524527
-28.8778 8.999 -11.6257 2.05119 0.188062 -4.5 -0.68746 -0.105233 0.718558 -0.999741
-43.5164 23.6058 -33.6837 -0.0533124 0 -2.90103 -0.0796637 0.944247 -0.319455 -0.0863571
-21.4727 11.9359 -30.6772 5.21831 0.144306 0.365297 -0.397822 -0.735356 -0.548624 0.779128
-27.2077 18.3708 -21.8145 -1.97326 -0.451166 -1.5079 -0.895279 0.432045 -0.108682 -0.404977
-38.95 9.5665 -19.8145 0.706798 0 -4.5 0.922375 0.362967 -0.132212 0.999821
-36.5708 25.3275 -30.0595 -0.549103 -0.61232 -3.33644 -0.393509 0.064786 0.917035 -0.99983
-32.6925 22.6869 -31.1306 -0.0662941 0 -3.5 0.354205 -0.463181 0.812405 0.0940774
-45.7106 24.9076 -30.8022 0.260202 -0.0638022 -3.84109 0.00508425 0.8376 -0.54626 0.999933
-30.6924 9.01231 -35.3904 -0.244513 0 -1.3 0.0851693 0.974845 -0.205969 0.999824
-37.5675 12.3576 -27.0129 0.140591 0 4.5 0.702237 0.0283142 0.71138 0.0755651
-36.6365 10.4076 -27.1021 0.70769 0 4.5 0.632016 0.445435 0.634148 -0.0593141
-25.217 10.4712 -34.467 -3.86763 0 -1.3 0.235489 0.97183 0.00951 -0.178579
-29.0371 23.5569 -34.6208 -0.291605 0 -3.06633 0.971303 -0.151297 0.18352 0.999888
-29.524 10.7043 -14.7449 0.049501 0 -4.5 -0.948718 0.279603 -0.147499 -0.387744
-35.1442 4.75675 -26.6904 0.476833 0 -2.7249 0.463537 -0.515477 0.720706 0.999924
-42.119 19.2773 -23.4252 -0.859941 -0.0519548 -3.5 0.619461 0.774856 0.125963 -0.999839
-29.9824 6.82575 -16.3237 1.17309 0 -4.5 -0.997223 -0.0680154 0.0303217 -0.506834
-36.9264 14.9454 -26.8749 0.0708266 0 4.2 0.998724 0.0374797 -0.033834 -0.571259
-34.9827 25.9464 -28.5168 -1.63196 -0.0693274 -3.5 -0.122466 -0.512228 0.850073 -0.99989
-44.2761 22.1544 -36.3923 0.794567 0 3.8 -0.299529 0.899393 -0.318395 0.616696
-24.9007 11.2767 -17.6911 0.198571 0 1.3801 -0.717863 -0.438108 -0.541049 0.999863
-29.7658 8.35906 -17.3202 0.899609 0 -4.5 -0.872036 0.266014 -0.410839 -0.9998
-26.5175 14.597 -12.1602 -0.512652 -0.894077 -0.7 -0.868167 0.0510948 0.493635 -0.999859
-26.0596 21.739 -24.8045 -0.136152 -0.0293769 -2.27883 -0.982111 0.0298603 0.185919 0.999857
-33.3243 7.0605 -28.3008 -0.224413 0 -0.8 0.872938 0.33941 0.350399 -0.534409
-37.9559 14.0999 -25.6962 0.118804 0 4.2 0.728641 -0.444666 0.520917 -0.214565
-30.2176 14.0305 -16.5333 0.445279 0 -1.6 -0.792163 0.00775339 0.610261 -0.718496
-30.2045 16.2256 -19.5809 0.248986 0 -1.6 -0.674713 0.687723 -0.267953 -0.69328
-28.5292 11.5903 -17.2611 0.654446 0 -2.08709 -0.521007 -0.520095 -0.676796 -0.0600834
-40.4178 15.4972 -20.9239 -0.289293 0 -3.5 0.962836 -0.0316931 -0.268222 0.99986
-21.1203 8.61619 -31.9004 4.0031 -0.0463735 -1.56222 -0.223399 0.93234 0.284316 0.999857
-28.1878 13.7894 -15.3789 0.516707 -0.51835 -0.911819 -0.678431 0.11001 0.72638 0.679226
-26.2092 20.9322 -22.605 -0.101042 -0.0762132 -1.6 -0.962431 0.247097 -0.112558 -0.999858
-29.8859 5.03256 -16.6255 0.556482 0 -4.5 -0.962784 -0.237762 0.128512 -0.584321
-28.8998 15.3628 -27.5003 0.543055 0 -1.3 -0.7164 0.300444 -0.629685 -0.999896
-27.845 12.9974 -26.0822 0.225193 0 -1.3 -0.388073 -0.765986 -0.512508 -0.869617
-35.2108 7.33413 -23.7906 0.505186 0 -3.5 0.714555 0.485119 0.504054 -0.783566
-30.2073 2.0725 -20.0745 0.552264 0 -4.5 -0.921367 0.106959 0.373688 -0.999844
-40.7342 14.8947 -22.9015 0.254215 0.0100033 -3.08882 0.679382 -0.300169 0.669581 -0.999831
-39.2653 11.2211 -19.2252 0.832647 0 -4.5 0.924825 0.27123 -0.266709 0.999918
-27.6705 9.63813 -10.713 1.02484 0 -1.6 -0.579566 -0.0653209 0.812303 -0.999925
-41.8197 17.8229 -29.5193 -0.220924 0 2.8 0.600975 -0.215465 -0.769678 0.466029
-43.6119 25.6179 -30.4083 0.501352 0 -3.5 -0.0583136 0.781569 -0.621087 -0.999864
-28.8247 16.5521 -17.3069 0.31898 0 -1.6 -0.416297 0.845859 0.333496 -0.661725
-26.5426 20.7924 -26.3185 -0.545279 -0.140523 -3.5 -0.9986 -0.0408426 -0.0336163 -0.33027
-25.926 17.3918 -15.2131 0.204427 0 -0.7 -0.694496 0.717964 0.0469271 -0.999885
-43.9328 21.3505 -24.4195 0.126819 0 4.5 0.759006 0.334528 0.55857 -0.999854
-27.1659 14.0651 -34.3666 0.360519 0 2.8 -0.549399 -0.644358 0.531944 -0.812274
-22.6944 12.5452 -35.2519 -2.00262 -0.0341106 1.74258 -0.500046 -0.561091 0.659645 0.926925
-28.8625 23.5103 -32.6955 -1.07855 -0.621116 -3.5 0.800617 -0.420324 0.427014 -0.999851
-32.5078 7.13156 -31.727 -0.253153 -0.00278906 -1.08248 0.818739 -0.517609 0.248489 0.283189
-25.8931 19.4627 -30.7188 0.133937 0.00596398 -0.953886 -0.899755 0.355987 -0.252416 0.500237
-36.2458 20.0201 -30.5298 0.144998 0 -1.6 0.143709 -0.667729 0.730401 -0.452292
-27.6394 12.7087 -18.977 0.464946 0 -1.6 -0.121642 -0.917308 -0.379142 0.314854
-24.2027 20.129 -35.766 0.154142 0 2.8 -0.510894 0.859643 0.000850614 0.999826
-41.1265 14.552 -34.0455 0.219302 0.0689927 1.49924 0.0231752 0.8477 0.529969 0.154338
-38.7832 8.83975 -22.9861 -0.0386865 0 -4.3304 0.724469 0.682985 0.0931413 0.370981
-40.7771 25.3265 -28.3136 0.227976 0 -3.5 0.861015 0.218257 0.459366 -0.999876
-26.6006 9.93028 -36.2163 0.397366 0.209263 -2.32731 -0.289214 0.878019 0.381362 0.51097
-39.5508 16.4005 -24.1698 0.10228 0 4.2 0.547431 0.28275 0.787637 0.109295
-36.1307 13.9345 -32.1657 0.580258 0.605248 -3.5 -0.119216 0.808483 0.576318 0.12335
-27.1026 17.2399 -31.9232 0.0113361 0 -0.9 -0.993934 0.0670889 0.0871423 -0.324672
-40.2731 13.3954 -31.5658 0.340538 0 4.15418 0.294015 0.934279 -0.201686 0.999792
-23.7342 9.25556 -34.5239 0.946739 0 -2.07557 0.167264 0.90313 0.395448 0.999837
-32.0324 15.0239 -33.9173 -0.148846 0 2.8 0.713518 -0.452082 0.53527 -0.297422
-32.922 12.877 -35.7624 -0.549172 0 2.8 0.924615 -0.248102 0.289021 0.6009
-41.0645 17.8206 -34.4632 -0.194661 0 3.8 -0.134255 -0.629639 0.765199 0.413009
-28.5319 16.5056 -19.35 0.0406884 0 -1.6 -0.407441 0.911124 0.0620127 0.290288
-30.7007 16.0707 -36.834 -0.0156001 0 -2.70089 0.460547 -0.827992 0.319885 0.999889
-22.4983 10.6426 -35.9263 -0.544955 -0.602296 2.77254 -0.420341 0.308634 0.853263 0.99988
-28.5502 16.1553 -35.1045 -0.019276 0 2.8 -0.536851 -0.629177 0.562074 0.130839
-38.6321 22.4897 -29.8793 -0.342786 -0.206251 -2.97696 0.289377 0.202874 0.935469 0.14071
-27.1171 11.3395 -10.9522 0.758513 0 -1.6 -0.556189 0.629223 0.542892 -0.999871
-30.336 15.9735 -35.3787 -0.0845009 0 2.8 0.357278 -0.879296 0.314948 0.0787683
-25.965 18.7381 -34.8904 -0.204181 0 2.8 -0.240894 0.803566 0.54429 0.460628
-40.8049 17.0801 -23.1614 0.429215 0 3.26775 0.932138 0.267486 0.244069 0.26956
-26.1382 18.7272 -27.2381 0.00593387 0 -3.5 -0.992961 0.114087 0.0318306 0.999716
-27.6345 17.2792 -33.8428 -0.110379 0 0.601124 -0.604158 0.324595 0.727757 -0.0274475
-25.7284 8.64284 -17.7128 0.652458 0 3.8 -0.284728 0.659404 -0.695784 0.867359
-39.7221 19.3013 -32.1782 0.0188493 0 3.8 -0.0310706 -0.946688 0.32065 0.266607
-26.9021 8.11613 -27.2129 -1.27585 0 2.10934 -0.744214 0.637685 0.198756 0.773323
-28.5536 9.45856 -35.5341 -0.224638 0 -1.3 -0.218007 0.946977 -0.236025 0.541943
-28.9988 12.4083 -15.7661 0.544723 0 -3.91015 -0.92755 0.0500674 0.370329 -0.0731827
-26.9509 16.789 -27.3094 -0.547784 -0.73538 -1.3 -0.815068 0.50006 -0.292583 0.127746
-44.7905 16.8064 -32.2394 -0.197081 0 3.8 0.998332 0.0295162 -0.0496188 0.999834
-24.66 12.4142 -27.6883 -0.0351775 0 -0.9 -0.746277 -0.144061 -0.649859 0.608737
-23.0912 13.2662 -32.8133 2.18811 0.0957502 -0.865094 -0.286965 -0.949158 -0.129421 0.531055
-43.8697 23.2489 -25.9218 0.0764369 0 -2.31439 0.659379 0.0785615 0.747695 0.999861
-24.09 10.9935 -35.8795 -2.99403 -0.306103 4.2 -0.177342 0.355772 0.917592 0.176702
-43.1781 17.3297 -35.0159 -0.0716857 -0.430931 4.2 0.279362 -0.308569 0.909254 0.999858
-39.984 24.1017 -33.1778 0.0249373 0 3.16798 -0.223482 0.963791 -0.145472 0.789832
-41.7977 24.1896 -31.6665 0.185867 0 -3.5 -0.0467872 0.848319 -0.527414 0.712327
-28.7778 14.8525 -22.3434 0.155075 0 -1.43269 -0.909801 0.22418 -0.349293 -0.166205
-29.3742 21.4865 -34.5437 -0.329291 0 0.149032 0.876022 0.00621896 0.48223 0.283371
-32.0432 9.74684 -36.7053 -0.360593 -0.1904 2.91267 0.713098 0.580969 0.392385 0.999835
-30.99 11.953 -38.0474 1.07458 0.659843 -4.5 0.164941 0.172977 0.971017 0.727457
-24.9278 11.7891 -21.4714 0.452446 0 0.924497 -0.863411 -0.470305 0.182578 0.727511
-26.2062 19.4334 -20.5684 -0.224973 0 -1.6 -0.706448 0.648193 0.284214 -0.999784
-33.7634 11.3809 -31.1917 -1.87739 -0.493618 -3.5 0.668639 0.249031 0.700647 -0.343058
-39.9828 13.5937 -33.509 0.401575 0 1.8 0.0781081 0.699902 0.709955 0.880512
-27.4445 10.5157 -34.0605 -0.536245 0 -1.3 -0.0970144 0.922294 -0.374114 -0.207455
-26.6171 16.8387 -16.8096 0.292962 -0.0125102 -1.59443 -0.424434 0.845589 0.323782 0.23202
-43.9643 16.2707 -30.9387 -0.0745776 0 2.8 0.558525 0.376981 -0.738874 0.999843
-33.3684 18.317 -31.657 -0.00666667 0 3.8 0.084995 -0.407778 0.909117 -0.804449
-28.7021 9.81144 -17.1172 1.65391 0.213248 -4.5 -0.524116 0.44306 -0.727324 -0.110362
-37.0086 13.8052 -28.4775 0.0809306 0 4.5 0.906721 0.390759 0.158636 -0.151106
-30.8977 13.5149 -19.2434 0.400699 0 -1.6 -0.849842 -0.469411 -0.239629 -0.999839
-28.4929 11.0285 -37.6802 -0.0792188 0 -4.5 -0.190548 0.29496 0.936317 0.677965
-29.2363 14.4268 -26.2118 0.645814 0 -1.3 -0.939361 -0.166402 -0.299852 -0.568917
-29.7074 2.97537 -23.3617 0.589113 0 -4.5 -0.994854 -0.0128633 -0.100501 0.999819
-37.5244 18.0353 -33.9928 -0.186704 0 -1.3 -0.182053 -0.428987 0.884775 0.662996
-43.563 14.6054 -32.7088 -0.0913094 0 3.8 0.47605 0.869429 -0.132171 0.999829
-25.9904 12.8055 -19.7871 0.354214 0 -1.55391 -0.442475 -0.888631 -0.120631 0.706469
-29.8916 4.55878 -26.0153 0.503281 0 4.5 -0.844928 0.525878 -0.0977187 -0.0572157
-24.4552 10.4305 -29.0034 0.604216 -0.969872 -0.8 -0.652505 0.61276 -0.445827 0.409914
-29.0149 4.26337 -31.9254 0.432602 0 -1.19983 -0.767513 0.0777657 0.636299 0.999858
-26.108 15.3621 -29.6346 -0.351555 0 -0.9 -0.953262 -0.260308 -0.153399 0.52923
-26.9264 15.5877 -33.5458 -0.217018 0 0.996077 -0.731778 -0.435038 0.524636 0.230464
-40.9119 25.9059 -30.2855 0.94441 0.594538 -3.5 0.445991 0.857712 -0.255777 -0.999845
-32.4474 4.24862 -29.6073 -0.401592 0 -0.4 0.844851 0.462743 0.268506 0.99979
-30.4912 4.75616 -21.1333 -3.19416 -0.217883 -4.5 -0.985184 0.125583 0.116796 -0.668403
-30.1104 9.44728 -37.2336 -0.158046 0 -4.5 -0.0344485 0.784015 0.619786 0.740021
-34.8614 10.2902 -29.6248 0.847957 0 4.5 0.7753 0.381977 0.502994 0.141884
-37.3453 8.52547 -23.9172 0.321629 0 -3.5 0.421791 0.827673 0.370202 -0.16978
-40.0761 16.1988 -34.4125 0.332399 0 -1.3 -0.225332 0.0662177 0.972029 0.223047
-46.6281 23.9489 -33.0243 -0.355425 -0.77261 -3.5 0.0881982 0.911518 -0.401693 -0.999882
-25.5849 9.75234 -22.8034 0.341791 0 3.43981 -0.735653 0.604256 0.306087 0.577687
-20.1368 10.0591 -31.9963 2.51454 0 0.863818 -0.96484 0.253614 0.0690169 0.999859
-42.0731 22.7349 -37.6621 0.594322 0 0.886369 -0.287498 0.917332 -0.275404 0.999877
-32.2307 10.7524 -32.2891 -0.662545 -0.296952 -1.3 0.431858 0.876322 0.213443 -0.0756071
-26.8307 13.4829 -36.0992 -0.368126 0 2.8 -0.601081 -0.64573 0.470886 0.132455
-31.1606 4.13088 -32.604 -0.0953497 0 -1.6 -0.0692739 0.434501 0.898003 0.999852
-28.1566 16.7165 -21.137 0.0750634 0 -1.58592 -0.739687 0.647365 -0.183799 0.0721119
-24.5152 9.51375 -18.3963 0.546767 0 3.50139 -0.813762 0.517551 -0.264448 0.999834
-28.8336 13.0236 -37.8732 -0.787647 -0.459936 -3.71719 -0.351473 -0.143238 0.925175 0.223988
-28.0557 8.60131 -21.5867 0.419 0 4.5 -0.534887 0.822106 0.195034 -0.623578
-41.4064 15.8995 -29.5635 -0.0944038 0 2.8 0.635826 0.249052 -0.730547 0.420004
-23.7132 12.3125 -28.9492 0.262746 0 -0.9 -0.907907 -0.289825 -0.302831 0.999798
-30.4204 10.0957 -30.8678 -0.618065 0 -1.3 -0.226169 0.252865 0.940695 -0.413972
-24.6017 12.9327 -35.0742 -4.70795 0 2.8 -0.355107 -0.771136 0.528439 0.175311
-20.9705 10.1077 -29.7582 2.68677 0 -1.03098 -0.649149 -0.173786 -0.740543 0.999856
-30.6846 24.6212 -31.0059 0.0899077 0 -3.5 0.406577 -0.490476 0.770797 0.999815
-24.6517 10.5274 -20.1507 0.495674 0 2.61997 -0.994283 -0.00910455 0.106388 0.485233
-24.168 9.755 -30.881 2.83779 -0.018511 -1.0499 0.199387 0.974719 -0.10084 0.168059
-31.9089 6.66475 -33.4792 -0.320413 -0.349167 -3.5 0.0901885 -0.453374 0.886746 0.999862
-42.4298 14.6034 -34.9082 0.0887919 -0.772255 3.8 0.114949 0.607454 0.785994 0.99987
-28.216 3.5465 -14.9102 -0.759807 -0.572327 -0.4 -0.753854 -0.396452 0.523956 -0.999829
-40.381 17.9035 -21.22 -0.398225 -0.0721347 -3.5 0.924033 0.062116 -0.377232 0.999857
-29.526 10.5083 -33.6198 -0.698893 0 -1.3 -0.11865 0.863868 -0.489546 -0.382508
-43.5131 18.4954 -33.6506 -0.765768 -0.193933 4.2 0.591228 -0.651426 0.475493 0.999761
-43.8189 18.7857 -31.1958 -0.261731 0 -3.5 0.717395 -0.458458 -0.524557 0.999844
-26.9205 17.9822 -29.6109 0.210644 0 -0.9 -0.99104 0.107716 -0.0789694 -0.39052
-42.1258 14.7011 -31.8882 0.15736 0 2.8 0.456726 0.779089 -0.429443 0.0935572
-34.5234 14.2443 -32.662 0.00269387 0 1.89922 0.0772014 0.472601 0.877889 0.222824
-29.9698 9.60778 -13.4213 -0.453662 0 -4.5 -0.966401 0.0827131 0.243367 -0.99977
-28.6088 15.4923 -37.1006 -0.22726 0 2.8 -0.454707 -0.70393 0.545641 0.820796
-29.8191 14.6009 -38.2014 -0.0743115 -0.407166 -2.58885 0.102495 -0.328171 0.939041 0.888118
-39.6918 23.5234 -29.6136 -0.682197 0 3.8 0.706289 0.361869 0.608446 0.23219
-28.1276 19.243 -35.3247 -0.905792 0 -3.5 0.410061 0.473109 0.779755 0.367055
-38.2844 14.9609 -28.9443 0.0142161 0 4.46409 0.39171 0.65113 -0.650072 -0.0884943
-43.9386 15.42 -34.6198 -0.014273 0 3.8 0.820376 0.221127 0.527338 0.999844
-25.3701 22.6133 -29.9466 0.0758762 0.262246 -3.5 -0.960861 0.175083 -0.214691 0.999794
-35.7405 18.8149 -32.2518 0.134781 0 -0.736922 -0.162834 -0.644723 0.746872 0.120744
-30.1659 19.2362 -32.4821 -0.0898909 0 3.8 0.570864 -0.103914 0.814442 -0.803966
-35.7059 12.9684 -30.4994 -0.0165423 -0.119671 2.25502 0.556724 0.654464 0.511601 -0.155341
-36.0213 8.74137 -25.6903 0.742897 0 -3.5 0.533398 0.748297 0.394383 -0.187814
-25.3181 13.7473 -31.8526 0.423077 0 -0.9 -0.778319 -0.627502 -0.0214752 -0.265505
-26.0804 12.6692 -26.3529 0.0536274 0 -0.9 -0.744862 -0.357914 -0.563096 0.250197
-21.6028 9.85642 -33.7282 1.66449 0 -0.4 -0.642509 0.549047 0.534536 0.307028
-42.0692 19.7309 -32.0382 -0.166953 0 2.69326 0.25169 -0.965147 0.0717139 0.655015
-27.906 15.626 -23.424 -0.501107 0 -1.3 -0.863256 0.502552 -0.0472313 0.46523
-26.9303 12.2335 -24.1264 0.16488 0 -1.3 -0.548628 -0.83486 0.0448939 -0.0692893
-33.5245 21.326 -31.6445 0.00261321 0 3.8 0.360125 -0.332365 0.87169 0.358758
-29.4118 17.5397 -34.0491 -0.0990084 0 3.8 0.331234 -0.427264 0.841266 -0.0836923
-23.4627 11.2245 -30.2337 3.2722 -0.487391 -0.822612 -0.425247 -0.219253 -0.878119 -0.108787
-27.839 7.84438 -19.2198 0.668483 0 -4.5 -0.57768 0.813546 -0.0665513 0.0915274
-25.9163 9.73662 -27.3063 0.264655 0 -0.885741 -0.859364 0.507941 -0.0590691 0.166575
-25.972 10.127 -24.2755 0.281382 0 4.5 -0.911612 0.407274 0.0556042 0.194412
-28.7108 7.29516 -30.7947 -0.449688 -0.082621 -0.8 -0.860412 -0.261704 0.437266 0.225504
-37.9667 25.1117 -31.6564 0.617775 -0.136792 0.154069 -0.10169 0.971092 0.215961 -0.999814
-39.0664 9.82269 -26.0716 -0.221895 0 4.5 0.348837 0.458432 0.817406 0.999763
-35.1947 16.8533 -33.7623 0.0839443 0 -0.682216 -0.329074 -0.0584187 0.942495 0.593778
-30.1268 3.68625 -28.8897 1.67676 0.559647 -3.5 -0.44 0.86348 -0.246579 0.999803
-42.3593 19.5965 -25.6277 0.110256 0.445361 -3.5 0.649972 0.658586 0.37921 0.474851
-33.0692 4.667 -31.9078 -0.270234 0 -2.58146 0.990204 0.135393 -0.0341235 0.999857
-37.34 15.1026 -33.8148 0.224372 0.0183424 -1.4334 -0.242097 0.367211 0.898079 0.615061
-26.648 14.882 -28.211 -0.494065 0 -1.3 -0.69776 -0.449364 -0.557856 -0.0649426
-26.4915 11.2565 -31.895 0.444865 0 -1.3 0.170752 0.964739 0.200307 -0.660685
-28.2045 22.7167 -36.515 0.0236191 0 -1.6 0.848633 0.0385289 0.527577 0.999886
3 89 98 23
3 44 98 89
3 44 277 98
3 44 89 171
3 277 44 153
3 171 89 58
3 101 44 171
3 44 101 153
3 153 82 277
3 58 280 171
3 171 280 101
3 9 153 101
3 194 82 153
3 159 277 82
3 101 280 9
3 242 153 9
3 194 159 82
3 153 243 194
3 280 140 9
3 242 243 153
3 242 9 140
3 243 270 194
3 331 243 242
3 140 52 242
3 270 243 331
3 242 52 331
3 270 331 309
3 223 309 331
3 309 209 270
3 34 309 223
3 157 223 331
3 117 209 309
3 117 309 34
3 34 223 120
3 133 223 157
3 209 117 129
3 117 34 84
3 120 223 133
3 120 123 34
3 157 55 133
3 239 129 117
3 69 84 34
3 84 239 117
3 133 204 120
3 123 120 150
3 69 34 123
3 55 157 170
3 137 133 55
3 84 69 335
3 239 84 198
3 133 137 204
3 112 120 204
3 120 231 150
3 123 150 193
3 115 69 123
3 55 170 57
3 137 55 36
3 69 115 335
3 198 84 335
3 204 137 324
3 231 120 112
3 314 112 204
3 150 231 321
3 193 150 321
3 193 288 123
3 27 115 123
3 57 170 0
3 55 57 36
3 137 36 324
3 65 335 115
3 10 198 335
3 324 314 204
3 112 131 231
3 262 112 314
3 321 231 218
3 302 193 321
3 288 193 4
3 27 123 288
3 95 115 27
3 0 92 57
3 158 36 57
3 158 324 36
3 167 335 65
3 95 65 115
3 167 10 335
3 314 324 255
3 262 131 112
3 218 231 131
3 262 314 333
3 301 321 218
3 302 4 193
3 302 321 301
3 304 288 4
3 288 31 27
3 104 95 27
3 57 92 293
3 293 158 57
3 324 158 132
3 167 65 227
3 130 65 95
3 255 324 315
3 333 314 255
3 276 131 262
3 131 276 218
3 337 262 333
3 218 241 301
3 302 254 4
3 236 302 301
3 110 288 304
3 304 4 254
3 288 110 31
3 27 31 311
3 130 95 104
3 311 104 27
3 158 293 132
3 324 132 315
3 227 65 211
3 299 167 227
3 130 211 65
3 315 139 255
3 40 333 255
3 337 276 262
3 218 276 77
3 337 333 212
3 77 241 218
3 241 312 301
3 254 302 236
3 301 312 236
3 304 214 110
3 304 254 263
3 110 311 31
3 104 39 130
3 104 311 169
3 293 201 132
3 132 245 315
3 190 227 211
3 181 299 227
3 211 130 39
3 139 315 325
3 90 255 139
3 18 333 40
3 90 40 255
3 276 337 251
3 207 77 276
3 333 305 212
3 108 337 212
3 241 77 297
3 312 241 297
3 254 236 263
3 236 312 263
3 214 304 207
3 311 110 214
3 304 263 207
3 39 104 169
3 169 311 257
3 201 245 132
3 245 310 315
3 190 181 227
3 190 211 41
3 299 181 11
3 41 211 39
3 315 310 325
3 90 139 325
3 305 333 18
3 18 40 90
3 337 108 251
3 207 276 251
3 77 207 297
3 305 316 212
3 212 86 108
3 263 312 297
3 207 251 214
3 86 311 214
3 263 297 207
3 169 177 39
3 86 257 311
3 257 177 169
3 164 245 201
3 310 245 109
3 105 190 41
3 64 299 11
3 41 39 177
3 229 325 310
3 216 90 325
3 305 18 126
3 216 18 90
3 214 251 108
3 316 305 126
3 86 212 316
3 108 86 214
3 257 86 316
3 161 177 257
3 164 340 245
3 340 109 245
3 109 107 310
3 190 105 53
3 105 41 177
3 229 222 325
3 229 310 226
3 216 325 225
3 126 18 216
3 316 126 250
3 83 257 316
3 161 105 177
3 257 83 161
3 107 109 148
3 310 107 226
3 6 53 105
3 269 222 229
3 225 325 222
3 79 229 226
3 225 30 216
3 217 126 216
3 281 250 126
3 316 250 274
3 274 83 316
3 105 161 332
3 162 161 83
3 107 148 226
3 105 28 6
3 222 269 199
3 213 269 229
3 307 225 222
3 229 79 213
3 206 79 226
3 225 220 30
3 216 30 217
3 142 126 217
3 250 281 141
3 126 142 281
3 250 141 274
3 274 162 83
3 162 332 161
3 332 28 105
3 206 226 148
3 269 291 199
3 282 222 199
3 269 213 318
3 220 225 307
3 307 222 282
3 79 203 213
3 79 206 88
3 30 220 12
3 12 217 30
3 142 217 122
3 141 281 290
3 122 281 142
3 76 274 141
3 274 119 162
3 162 317 332
3 269 318 291
3 291 282 199
3 213 268 318
3 307 308 220
3 286 307 282
3 203 79 70
3 213 203 303
3 88 206 43
3 88 70 79
3 308 12 220
3 128 217 12
3 122 217 246
3 290 281 114
3 87 141 290
3 281 122 94
3 76 119 274
3 76 141 87
3 317 162 119
3 275 332 317
3 291 318 238
3 113 282 291
3 213 303 268
3 338 318 268
3 286 308 307
3 286 282 151
3 203 70 313
3 313 303 203
3 70 88 3
3 12 308 128
3 246 217 128
3 122 246 94
3 281 300 114
3 114 147 290
3 290 100 87
3 94 300 281
3 76 176 119
3 87 68 76
3 119 118 317
3 59 332 275
3 317 188 275
3 318 326 238
3 238 200 291
3 113 151 282
3 291 240 113
3 338 268 303
3 318 338 289
3 247 308 286
3 151 259 286
3 313 70 3
3 7 303 313
3 128 308 247
3 247 246 128
3 94 246 160
3 252 114 300
3 339 147 114
3 290 147 106
3 100 290 330
3 202 87 100
3 94 160 300
3 68 176 76
3 118 119 176
3 68 87 202
3 317 118 188
3 59 275 208
3 188 138 275
3 326 318 289
3 326 154 238
3 238 99 200
3 291 200 240
3 113 210 151
3 240 210 113
3 338 303 235
3 237 289 338
3 247 286 259
3 151 210 259
3 228 303 7
3 67 7 313
3 273 246 247
3 246 273 160
3 339 114 252
3 233 252 300
3 25 147 339
3 45 106 147
3 106 330 290
3 100 330 50
3 100 296 202
3 300 160 233
3 68 271 176
3 118 176 16
3 202 336 68
3 118 71 188
3 208 275 17
3 208 42 59
3 188 71 138
3 17 275 138
3 289 266 326
3 154 326 292
3 154 99 238
3 320 200 99
3 240 200 221
3 163 210 240
3 235 303 228
3 186 338 235
3 266 289 237
3 319 237 338
3 247 259 273
3 210 273 259
3 196 228 7
3 67 196 7
3 160 273 233
3 339 252 163
3 233 210 252
3 147 25 45
3 25 339 295
3 45 29 106
3 330 106 29
3 50 330 267
3 296 100 50
3 202 296 111
3 271 68 336
3 176 271 16
3 16 48 118
3 202 111 336
3 48 71 118
3 102 208 17
3 42 208 156
3 326 266 295
3 78 292 326
3 292 99 154
3 200 320 221
3 320 99 279
3 240 221 215
3 210 163 252
3 240 215 163
3 116 235 228
3 186 260 338
3 51 186 235
3 266 237 319
3 338 187 319
3 233 273 210
3 116 228 196
3 196 67 33
3 163 295 339
3 25 266 45
3 266 25 295
3 45 232 29
3 96 330 29
3 75 267 330
3 283 50 267
3 283 296 50
3 111 296 283
3 24 16 271
3 48 16 166
3 111 283 336
3 208 102 156
3 42 156 56
3 326 295 78
3 279 292 78
3 99 292 279
3 215 221 320
3 320 279 182
3 163 215 295
3 116 51 235
3 260 186 51
3 187 338 260
3 328 266 319
3 319 187 323
3 175 116 196
3 33 175 196
3 45 266 328
3 328 232 45
3 232 146 29
3 75 330 96
3 29 19 96
3 73 267 75
3 24 166 16
3 136 24 271
3 191 56 156
3 182 78 295
3 279 78 182
3 320 295 215
3 182 295 320
3 51 116 322
3 51 322 260
3 54 187 260
3 329 328 319
3 323 187 54
3 329 319 323
3 35 116 175
3 80 232 328
3 146 232 80
3 29 146 19
3 73 75 96
3 19 334 96
3 334 136 271
3 14 322 116
3 260 322 54
3 328 329 80
3 124 323 54
3 323 135 329
3 116 35 14
3 175 184 35
3 146 80 22
3 19 146 265
3 334 73 96
3 334 19 265
3 265 136 334
3 155 322 14
3 54 322 244
3 329 22 80
3 134 323 124
3 124 54 244
3 134 135 323
3 135 278 329
3 35 184 14
3 74 146 22
3 146 74 265
3 265 60 136
3 322 155 284
3 155 14 184
3 244 322 284
3 22 329 287
3 145 134 124
3 124 244 145
3 134 248 135
3 135 248 278
3 287 329 278
3 74 22 38
3 61 265 74
3 261 60 265
3 155 249 284
3 249 155 184
3 244 284 179
3 287 38 22
3 134 145 264
3 145 244 21
3 134 264 248
3 278 248 294
3 278 327 287
3 38 61 74
3 61 261 265
3 249 219 284
3 219 179 284
3 21 244 179
3 287 62 38
3 264 145 205
3 258 145 21
3 294 248 264
3 294 32 278
3 32 327 278
3 327 62 287
3 62 61 38
3 261 61 272
3 253 219 249
3 195 179 219
3 179 258 21
3 145 258 205
3 85 264 205
3 264 172 294
3 285 32 294
3 327 32 285
3 62 327 121
3 61 62 272
3 1 261 272
3 195 219 253
3 249 127 253
3 179 195 144
3 258 179 144
3 205 258 20
3 85 172 264
3 205 180 85
3 172 285 294
3 327 285 230
3 121 327 72
3 62 121 272
3 1 272 189
3 253 49 195
3 253 127 66
3 178 144 195
3 178 258 144
3 258 178 20
3 20 180 205
3 149 172 85
3 149 85 180
3 285 172 149
3 149 230 285
3 256 327 230
3 327 173 72
3 121 72 143
3 272 121 189
3 46 49 253
3 178 195 49
3 253 66 197
3 234 20 178
3 20 234 180
3 180 256 149
3 149 256 230
3 327 256 173
3 72 173 168
3 143 72 185
3 121 143 189
3 49 46 183
3 253 197 46
3 49 183 178
3 234 178 183
3 234 165 180
3 180 165 256
3 15 173 256
3 168 173 15
3 72 168 185
3 185 8 143
3 8 189 143
3 91 183 46
3 46 197 2
3 183 91 234
3 165 234 5
3 165 15 256
3 168 15 93
3 168 93 185
3 37 8 185
3 46 174 91
3 174 46 2
3 234 91 5
3 165 5 306
3 306 15 165
3 93 15 306
3 298 185 93
3 37 185 298
3 81 91 174
3 91 81 5
3 5 47 306
3 306 103 93
3 93 125 298
3 174 63 81
3 81 224 5
3 47 5 224
3 152 306 47
3 152 103 306
3 93 103 13
3 13 125 93
3 63 224 81
3 47 224 152
3 97 103 152
3 103 97 13
3 125 13 26
3 152 224 192
3 152 192 97
3 13 97 26
