ply
format ascii 1.0
comment Generated by PyMesh
element vertex 211
property float x
property float y
property float z
property float charge
property float hbond
property float hphob
property float nx
property float ny
property float nz
property float si
element face 371
property list uchar int vertex_indices
end_header
32.2635 2.288 -1.004 -1.05995 0 2.8 -0.461906 0.472794 -0.750405 -0.560339
33.3035 4.17825 1.54275 -1.03246 0 2.8 0.164421 0.969041 -0.184185 -0.728872
29.7625 8.84412 2.92587 -1.4755 0 2.38314 0.203163 -0.780536 0.591176 0.445981
24.2585 6.58238 -4.55937 -2.40959 -0.619684 -3.17713 0.833588 0.0244777 0.551845 0.999889
24.9688 11.3977 -7.7525 -0.570389 0 -0.9 0.815246 0.228699 -0.532044 0.999927
24.168 6.82562 2.37462 -1.31725 0 4.2 0.561007 -0.671225 0.484487 -0.689522
31.8325 7.15775 -0.23025 -0.925099 0 2.8 0.213015 -0.964674 0.155009 -0.514671
22.6255 2.845 -0.247125 -2.55855 0 0.208334 0.773231 0.228917 0.591363 0.787178
29.752 6.92625 -0.10075 -1.19153 0 2.8 0.0246272 -0.998576 -0.0473198 -0.361964
27.1605 7.57 1.184 -1.55131 0 2.8 -0.236178 -0.964579 0.117506 -0.0955947
35.5793 8.9305 -0.9995 -0.645927 0 4.2 0.572933 -0.774148 0.269151 0.99991
24.9849 7.93113 -4.47888 -1.29239 0 -0.7 0.50119 -0.699623 0.509251 0.999871
23.609 7.67 3.5515 -1.29663 0 4.2 0.669031 -0.334774 0.663569 -0.299359
29.556 7.02 1.762 -0.73804 0 2.8 0.117044 -0.882413 0.455684 -0.999839
37.4668 8.79325 5.00075 -0.550733 0 -4.5 -0.621794 -0.779169 -0.0791719 -0.99993
28.3582 3.26562 2.5235 -1.36533 0 2.8 -0.138819 0.990199 0.0153228 -0.635143
25.4347 3.71675 5.3555 -0.845533 0 2.8 -0.125761 0.911378 -0.391885 -0.784071
20.336 11.5305 9.3 -0.486972 -0.376381 4.2 0.767588 0.436034 0.46977 0.999867
28.2555 8.12438 -5.92375 -0.978161 0 -0.9 0.880663 0.0872947 0.465632 -0.414471
30.7896 -0.69925 -3.0675 -0.767564 0 0.292001 -0.0850716 0.880448 -0.466449 0.468946
25.8218 10.3293 -6.90475 -1.67479 0 -0.9 0.626642 0.594803 -0.503516 0.844783
28.437 -1.0455 -6.23125 -1.48403 0 -0.9 0.211313 0.9567 0.200179 0.68725
34.5574 8.92387 1.52762 -0.642663 0 1.27034 0.418812 -0.876345 0.237942 0.0872421
26.9451 8.21562 -0.25575 -1.84198 0 2.03361 -0.18689 -0.934079 -0.304252 0.594699
37.5597 8.873 6.7165 0.718557 0 -4.5 -0.700441 -0.713386 0.0215369 0.999859
26.1313 10.8958 9.412 -0.128173 0 -0.8 -0.506624 0.859049 0.073256 0.613517
35.813 9.342 0.5075 -0.44227 0 4.2 0.480795 -0.856258 0.188835 -0.999892
24.3131 4.76988 7.88275 -1.10522 -0.171417 1.83781 0.149584 0.325646 -0.933584 0.761142
34.804 6.985 -6.7755 -2.01783 -0.0908718 -3.5 -0.564051 -0.741966 -0.362399 -0.999874
21.9901 1.76025 4.98562 -1.39824 0 3.44502 -0.350706 0.886832 0.300889 0.154082
26.8455 8.36312 -2.45263 -1.67856 0 -0.7 0.0505309 -0.997999 -0.0380212 0.376028
35.9136 6.83388 -3.9945 -1.7475 -0.0189637 -3.5 -0.806804 -0.413991 0.42152 0.999961
32.0119 -0.15675 -3.92663 -0.793951 0 4.2 -0.509947 0.851476 -0.122241 0.100645
24.1035 3.98975 -1.30075 -2.89247 0 -3.5 0.65395 0.109945 0.748506 -0.331954
26.3197 11.9556 11.2049 0.21175 0 1.8 -0.570022 0.732144 -0.372882 -0.999873
31.0707 0.62825 -9.798 -0.520439 0 4.2 0.252266 0.552336 0.794536 0.999856
28.242 6.959 0.268 -1.41575 0 2.8 -0.337241 -0.913129 -0.229052 -0.999827
26.9568 13.9347 8.1375 0.0681524 0 -1.3 -0.600859 0.273038 0.751278 -0.999847
25.4616 14.3351 7.01538 -0.0189386 0 -1.3 -0.378946 0.202065 0.903089 0.999871
34.0839 9.59912 5.38188 2.20039 -0.883949 -0.7 0.527727 -0.83759 0.141235 0.355932
29.5082 13.6643 -2.911 -1.3564 0 -0.9 -0.373955 0.0563853 -0.925731 -0.999906
29.035 14.428 8.62488 0.150485 0 -1.3 -0.313414 0.766124 0.561093 0.999903
27.8916 12.5473 -0.661625 -1.12291 0 2.40158 -0.3252 0.325626 -0.887813 0.999904
31.3967 6.46356 -8.18038 -0.739697 0 3.8 0.487158 0.494732 0.719664 -0.999814
21.1004 4.52563 7.1235 -1.38418 0 -0.8 0.155546 -0.45572 -0.876427 0.749446
25.7957 11.7835 7.7265 -0.820538 0 -1.01912 -0.535531 0.383913 0.752208 0.214913
28.1863 14.0745 -1.5805 -1.88493 0 -0.9 -0.674265 -0.112013 -0.729945 0.999892
36.809 5.655 7.964 -0.369371 0 1.86022 -0.0500049 0.601554 -0.797265 0.999927
34.7522 9.29831 8.4805 -0.0766949 0 -0.118979 0.38209 -0.2648 -0.885375 0.999846
24.0159 0.916125 3.10394 -1.7094 0 -0.688093 0.116685 0.911649 -0.394058 0.84532
27.0706 0.830938 -9.48906 -0.727544 0 -0.700701 0.433609 0.344825 0.832514 0.999853
31.4439 2.53888 -10.4369 0.0552745 0 3.89692 0.317434 -0.128962 0.93947 0.999893
21.2764 0.629375 5.87119 -1.46 0 2.86973 -0.318108 0.922414 0.218995 0.999888
35.6172 2.349 1.366 -1.14894 0 2.8 0.714638 0.543481 -0.440365 0.999899
20.1047 3.1035 4.14425 -0.436951 0 0.554715 0.77594 0.249978 0.579161 0.601127
25.351 8.22225 -0.763 -1.74761 0 -0.7 0.496998 -0.858372 -0.127238 0.829055
25.0707 10.928 11.7559 0.334746 0 1.8 -0.452632 0.845381 -0.283646 0.999904
27.7749 9.18856 -4.859 -1.31829 -0.0716098 -0.7 0.970243 -0.209027 -0.122211 -0.161004
28.1606 5.18925 7.64962 -0.903154 0 -2.61119 -0.572762 0.232966 -0.78592 0.999875
27.1608 9.91969 -6.07969 -0.248 -0.614773 -0.70952 0.790015 0.53177 -0.305119 -0.0923065
26.0416 4.21263 7.39113 -0.938521 0 1.59082 -0.0794631 0.714017 -0.695605 0.464396
32.3385 3.71 -10.0175 -0.551596 0 3.8 0.529888 -0.547634 0.647545 -0.999876
31.8815 4.608 -8.3285 -0.754508 0 3.8 0.587225 -0.372671 0.718528 -0.99982
23.0352 1.28112 1.36462 -1.92129 0 3.71993 0.65913 0.731076 0.176283 0.795869
23.3931 2.33969 4.16106 -0.859273 0 2.8 -0.131681 0.885768 -0.445056 -0.218604
26.0366 2.02825 -8.42387 -0.902861 0 -0.4 0.967874 -0.0899337 0.234803 0.99986
24.9957 8.90944 2.48275 -1.02399 0 4.2 0.281026 -0.553564 0.783958 0.514334
25.2895 7.5215 7.61562 -0.485271 -0.224405 -0.8 -0.0342186 -0.313059 -0.949117 0.288196
22.9685 11.0559 4.32031 -1.17291 0 -0.839997 0.337296 -0.4571 0.822977 0.999854
27.5346 4.32 -6.03719 -1.33566 0 -0.9 0.788652 -0.339089 0.51288 -0.220567
22.8053 4.81962 -0.51575 -2.2179 -0.268557 -3.5 0.790551 -0.306101 0.530407 0.547034
33.2092 4.21387 6.64725 -1.18268 -0.590462 -3.5 0.36209 0.720389 -0.59155 0.999727
27.0308 9.81 -9.5745 -2.19523 0 -0.9 0.270878 0.959983 -0.0711209 -0.999824
19.8791 4.67525 4.43162 1.87193 -0.759906 -0.7 0.914416 -0.290514 0.28186 0.667814
22.8281 6.02506 1.92919 -1.3295 0 4.2 0.571399 -0.711773 0.408512 0.0814996
25.9938 9.71969 3.61963 4.33927 -0.836843 -1.3 -0.42666 -0.856052 0.291783 0.719164
31.1542 7.43475 -10.3833 0.695497 0 3.8 0.465907 0.798347 0.38154 0.999871
25.3965 10.164 -8.63037 -0.499505 0 -0.9 0.546951 0.809789 -0.212334 0.999918
21.874 10.963 6.921 -2.5057 -0.831782 4.2 0.94189 0.284245 -0.179018 0.385274
35.724 4.02163 5.20862 -0.146758 0 -3.5 -0.324608 0.944522 -0.0500794 0.756017
23.284 8.34456 6.84106 -1.52786 0 -0.8 0.627392 0.0996234 -0.772304 -0.113796
28.1637 7.208 7.08975 -0.877329 -0.642386 -0.968221 -0.293818 -0.237803 -0.925808 0.27797
30.6088 11.3235 -2.00988 -1.02668 0 1.63956 -0.343474 0.0415979 -0.93824 0.999866
24.6667 10.3333 10.1527 -0.212848 0 -0.76861 -0.203995 0.977474 -0.0541376 0.848945
34.2177 7.03044 7.83462 -0.421288 0 3.33092 0.374794 0.0940537 -0.922325 0.19135
33.1946 7.72156 1.31819 -2.57785 -0.170668 2.8 0.270966 -0.859296 0.433806 -0.99982
33.2462 7.63469 -1.43425 -0.491435 0 2.8 0.29213 -0.936325 0.194822 0.223249
35.9494 3.45375 2.43887 -0.624249 0 -3.5 0.309236 0.805554 -0.505427 -0.999883
26.7311 2.83394 -5.9885 -1.35173 0 -1.3 0.949578 -0.305238 -0.0716364 0.110009
22.1144 9.2345 8.52531 -0.0915487 0 3.3822 0.34792 0.854912 0.384807 0.999869
32.1797 8.76688 2.48831 -1.3929 0 0.173662 0.0318764 -0.904167 0.425989 0.344219
20.7465 10.8215 10.6377 -0.194029 0 4.5 0.696053 0.643877 -0.317699 0.999896
31.1192 12.6053 -2.84475 -1.16991 0 -0.9 -0.270248 -0.295391 -0.916357 0.999896
28.2847 3.66675 -9.5425 -0.764219 0 -0.4 0.290504 -0.514694 0.806658 0.843734
31.1173 7.87069 1.21713 -1.38181 -0.278994 2.8 0.184995 -0.843659 0.504001 0.240528
23.8791 6.24575 0.130063 -1.52584 0 4.2 0.674403 -0.735334 0.0668194 -0.05246
27.1609 -0.490063 -5.0745 -1.3159 0 -1.3 0.691859 0.678219 -0.247689 0.748128
35.3172 6.52 -5.44425 -1.73684 0 -3.5 -0.467924 -0.863135 0.189854 0.999837
33.4318 9.0135 -7.15875 2.65452 0 -3.5 -0.754696 -0.380032 -0.534798 -0.999873
29.1487 1.03838 -2.81256 -1.68049 -0.117034 -3.5 0.558785 0.619886 -0.550909 -0.452888
25.6541 7.44194 1.19944 -1.4038 0 4.2 0.319902 -0.937465 0.13719 -0.180494
33.2424 3.3845 5.03175 -1.08818 -0.231419 -3.5 0.197926 0.974085 -0.10947 0.999814
33.5711 7.19656 -4.18062 -0.453676 0 -3.5 -0.0502866 -0.998293 -0.0296932 -0.0994674
32.208 11.303 -3.9395 -2.06433 -0.00323916 -3.5 -0.807511 0.234911 -0.541057 0.999876
23.9339 6.18256 -1.41625 -1.72282 0 -3.5 0.89011 -0.299135 0.343834 0.343495
32.5364 4.17044 3.18275 -0.873924 -0.0227678 1.16639 0.0223841 0.996787 -0.0769106 -0.247996
21.9166 4.02663 0.812813 -2.11526 0 4.2 0.924321 0.023605 0.380884 0.428291
28.7107 0.676188 -9.41456 -1.09618 -0.017211 0.0288271 0.0444837 0.618771 0.784311 0.402915
25.7201 1.37675 2.50487 -1.64161 0 2.8 -0.434666 0.870899 -0.229349 0.612115
27.1866 12.1368 8.4715 -0.865399 0 -1.3 -0.68839 0.435234 0.580251 0.897947
34.56 3.85687 3.10375 -0.71646 0 2.37119 0.049086 0.997361 -0.0534866 -0.118628
32.4929 6.76369 -3.11419 1.0973 0 2.8 0.0572651 -0.996873 -0.0544596 -0.763723
29.7694 -0.1225 -8.06063 0.230636 0 -0.9 0.0718194 0.887067 0.456019 -0.35041
23.6262 6.55337 7.71744 -2.15465 0 -0.8 0.469071 -0.141943 -0.871679 0.791242
28.3359 8.02431 -1.1865 -1.88641 0 2.8 -0.211506 -0.885439 -0.413839 -0.110925
29.6046 1.43819 -0.710312 -0.989022 0 2.8 0.448409 0.75102 -0.484663 0.469839
35.7168 1.61625 -0.36525 -1.02064 0 2.8 0.443055 0.724268 -0.528335 -0.999822
35.2325 0.431937 -2.0665 -0.48508 -0.202427 1.33393 0.250528 0.935877 -0.24773 0.999893
22.2912 12.1051 5.75644 -0.872505 -0.676849 4.2 0.677712 -0.463526 0.570833 0.527962
34.262 8.25762 -0.130875 -1.11465 0 2.8 0.491454 -0.851645 0.182136 -0.205248
27.8421 2.47069 -2.41788 -5.17775 -0.109814 -3.5 0.40601 0.902041 -0.146555 -0.317524
21.3284 12.5887 8.28413 -1.5364 -0.47867 4.2 0.860057 0.0947113 0.50133 -0.999872
27.8593 3.92706 6.38013 -1.05394 0 -3.5 -0.433786 0.683619 -0.586937 0.47339
33.2669 8.23625 6.55875 -0.606009 0 1.8 0.706928 -0.491957 -0.508164 0.0762742
30.9326 1.96925 -0.0374375 -1.15385 0 2.8 -0.309467 0.643617 -0.699991 0.245682
32.3298 3.71269 0.0829375 0.0456718 0 2.8 -0.263794 0.822771 -0.503449 -0.999806
36.6107 10.1089 2.51938 -0.239313 0 -2.86345 0.131425 -0.991312 0.00526594 0.999891
32.6849 6.24312 -9.73625 -0.372513 0 3.8 0.828309 0.300262 0.473018 -0.999898
25.395 13.7675 -2.8065 -0.874601 0 3.88196 0.785244 0.612964 -0.0875623 0.99988
34.4332 3.37969 0.7165 -1.14546 0 2.8 0.446172 0.764997 -0.464447 -0.479368
32.1727 0.13 -6.171 -0.77237 0 4.2 -0.476375 0.874561 -0.0906116 -0.768225
25.3996 10.0699 5.56219 -1.56002 0 -1.3 -0.696003 -0.708163 -0.118679 0.0872265
24.3736 10.4954 4.36925 -1.3909 0 -1.3 -0.242912 -0.6659 0.705387 0.192945
26.1362 1.42144 -6.772 -1.14271 0 -1.3 0.976971 0.0776337 -0.198748 0.716451
33.8815 0.393875 -6.77287 -0.565011 0 4.2 -0.226821 0.94665 -0.228924 -0.999914
32.358 10.3357 -5.884 1.9451 0 -3.5 -0.891563 0.0271277 -0.452084 -0.999856
28.141 -0.414562 -7.83681 -1.08682 0 -0.9 0.111754 0.884107 0.453725 0.715249
27.0316 3.53275 -8.473 -0.990811 0 -0.754035 0.70537 -0.500459 0.50199 0.532906
21.9504 9.705 10.6629 0.251914 0 4.5 0.272527 0.835675 -0.476839 0.684954
27.0546 0.995812 -4.40487 -1.46666 0 -1.3 0.832581 0.307247 -0.460877 0.322394
27.1476 11.5941 -2.30413 -1.47508 0 -0.7 0.491614 0.828123 -0.269311 0.697327
37.2072 4.83856 6.73825 0.0201064 0 -3.5 -0.363846 0.88545 -0.289127 0.999892
22.724 4.011 6.81 -1.33802 0 1.02429 0.239817 0.0898064 -0.966655 -0.14476
27.3531 8.70972 5.86981 -1.30079 0 -0.8 -0.21445 -0.881017 -0.421687 0.0929081
20.9608 6.10869 3.89009 -2.31715 -0.319915 4.2 0.675305 -0.686607 0.26932 0.979613
23.7792 1.84569 -1.00809 -1.84553 -0.118819 -1.86066 0.480929 0.617459 0.622456 0.860357
36.0178 10.4628 6.29809 -0.333223 -0.0964132 -0.7 -0.280469 -0.959549 0.0245578 0.807947
28.739 12.0595 -2.698 -1.30865 0 -0.467954 -0.184648 0.236582 -0.953905 -0.0785529
24.8376 7.75159 -2.89534 -1.73304 0 -0.971941 0.758385 -0.651779 0.00604913 0.367184
22.741 9.28772 4.13438 -1.4364 0 4.2 0.638448 -0.124848 0.759472 0.459531
33.2355 5.56847 7.72325 -0.911937 0 -2.34264 0.394839 0.113461 -0.911717 0.999807
26.5237 8.52022 -4.12844 -1.06075 -0.756002 -0.7 0.420748 -0.886719 0.191575 0.184432
29.2043 6.13175 5.941 -0.664209 0 -3.5 -0.564057 0.373618 -0.736376 -0.372398
24.8712 5.40741 -3.039 -3.3558 -0.134429 -3.5 0.865208 0.294817 0.405584 -0.0663499
28.5059 -1.03897 -4.32853 -0.687948 0 -2.92574 0.402232 0.765081 -0.502853 0.810789
30.6564 -1.47812 -5.15928 -1.11424 0 4.2 -0.249396 0.968335 0.0113885 0.660585
31.1256 0.205594 -1.32369 -1.23675 0 -2.53217 0.0931757 0.787634 -0.609058 0.767557
28.7928 9.28859 -2.69944 -1.472 -0.190535 -0.273311 0.388419 -0.367186 -0.845166 0.0885307
21.9655 2.38256 3.25919 -1.42159 0 4.2 0.553229 0.779853 0.292859 0.116068
29.5681 7.09369 -8.06312 -1.14821 0 2.14327 0.642309 0.417593 0.642694 0.0849557
21.1405 4.69825 2.37475 -1.5517 -0.462031 4.2 0.79898 -0.122665 0.588714 0.402562
26.4293 12.4264 -6.48319 -3.10023 0 -3.5 0.751634 0.136475 -0.645307 -0.999844
26.1052 5.50094 -5.08444 -1.75569 -0.353157 -1.8908 0.615836 0.289921 0.732593 0.275257
34.7335 0.89175 -4.39412 -0.703795 0 4.2 -0.184011 0.981787 -0.0472711 -0.999849
34.5284 10.442 7.27659 -0.585568 0 -3.5 0.38231 -0.865508 -0.323627 0.999872
28.472 12.8076 10.5229 -0.069379 0 -1.3 -0.685388 0.680459 0.259266 0.999882
30.0041 9.48019 4.37997 -1.13919 0 -0.7 -0.0562459 -0.997409 -0.0448428 0.559151
31.032 9.76987 -3.25875 -1.28475 0 2.23273 -0.712696 0.111442 -0.692564 0.0467464
26.6549 13.6789 -4.67637 -1.04032 0 -3.5 0.83497 0.539934 0.10628 -0.999846
32.8554 8.74288 4.367 -1.94814 -0.779301 -0.7 0.219407 -0.968822 -0.115086 -0.147971
20.1729 1.75162 4.82587 -1.65964 0 4.2 0.540348 0.694562 0.474981 0.641187
26.3153 6.08466 8.05244 -0.564375 0 -0.8 -0.114932 0.0680064 -0.991043 0.575213
32.3826 7.90513 -4.89062 -1.55016 0 -3.5 -0.642712 -0.616347 -0.455015 -0.452333
30.8306 3.14528 2.34844 -1.32562 0 -0.832681 -0.237399 0.916582 -0.321744 0.2502
21.8415 9.569 5.84944 -1.67125 0 -0.8 0.992549 0.108265 -0.0559076 0.526623
37.1575 8.942 8.22 0.727866 0 -4.5 -0.362914 -0.691167 -0.624966 0.999855
37.153 4.721 4.2895 -0.430701 0 -3.5 -0.30112 0.939688 -0.162211 -0.999911
24.6989 12.1133 5.86822 -0.932904 0 -1.3 -0.620984 -0.531848 0.575775 0.358343
20.1416 5.00666 5.91703 3.58797 -0.670184 -0.716931 0.581942 -0.717351 -0.383081 0.475856
26.7891 2.67006 4.48578 -1.2814 0 2.8 -0.188944 0.894009 -0.40626 0.318356
37.0622 7.14175 8.65475 0.0450907 0 4.2 0.151763 0.189225 -0.970135 0.999802
36.0749 9.97237 4.32731 -0.338706 -0.17621 -3.42876 -0.0834577 -0.987539 0.133426 0.250353
22.9866 10.4192 11.5284 -0.257411 0 4.5 -0.230809 0.921616 -0.312011 -0.999871
27.4935 8.63506 3.31781 -0.343405 0 2.8 -0.106574 -0.868773 0.483608 -0.106989
26.7119 -0.0740938 -7.29497 -1.12802 0 -1.3 0.761542 0.637474 0.116964 0.684202
28.3457 2.95109 0.634938 -0.730212 0 2.8 -0.194825 0.93515 -0.295867 -0.405112
23.174 13.5971 6.78862 -0.260142 0 -1.6 -0.0533212 -0.584829 0.809402 0.99986
35.8755 8.27 -2.657 -0.870102 0 -3.5 0.180125 -0.913991 0.363558 0.999823
26.5334 3.09459 -4.1015 -1.67227 0 -1.3 0.889091 0.361011 0.281403 0.0323837
35.2907 4.29722 7.03475 -0.636151 -0.158799 -3.5 -0.0560652 0.711844 -0.700096 0.623676
31.7531 -0.701 -8.18888 -0.542397 0 4.2 -0.138781 0.981124 0.134671 0.99988
30.8384 7.056 -2.09525 -0.571252 0 2.8 -0.288155 -0.875042 -0.388932 -0.386888
29.3365 4.95294 -7.34225 -0.861458 0 1.74466 0.404043 -0.459165 0.791149 -0.276778
20.5727 0.923125 7.53469 -1.23402 0 2.8 0.382531 0.742208 -0.550271 0.999892
28.534 2.994 4.024 -1.27969 0 2.8 -0.322768 0.872594 -0.366606 0.402273
31.1745 7.57225 6.0095 -0.95504 0 0.0188427 -0.0438106 -0.332958 -0.941923 0.0993762
23.0325 10.58 7.8015 -0.762104 -0.0378875 0.32859 -0.0936023 0.898621 -0.428624 -0.145096
25.4801 2.62909 -2.17606 -1.82303 0 -3.5 0.444113 0.610961 0.655355 0.199255
29.7292 2.98587 -9.79616 -0.629508 0 3.8 0.226197 -0.266404 0.936944 0.173482
25.7877 0.83325 0.0538906 -1.60536 0 -2.86354 -0.197481 0.956478 0.214826 0.769965
29.1627 9.02102 6.68803 -1.20755 0 -0.259305 -0.0995753 -0.684236 -0.72243 0.999854
22.7596 2.52942 6.33419 -1.61031 0 2.8 -0.457377 0.659915 -0.596086 0.308139
28.8299 9.10575 -10.0685 -2.26102 0 -0.9 0.668692 0.703619 0.240359 -0.999808
28.0595 11.068 -4.24697 -1.52799 0 -0.7 0.851492 0.335774 -0.402761 -0.256542
22.1918 7.02688 5.37119 -1.88073 0 -0.533132 0.90903 -0.38263 -0.165099 0.0532325
27.1653 7.154 -5.354 -1.7022 0 -0.9 0.501509 -0.228607 0.834402 0.0278926
26.5725 14.0316 -1.14644 -1.34747 0 4.5 0.503422 0.169075 -0.847337 0.999886
33.2219 0.925922 -2.23359 -0.493726 0 3.03352 -0.169545 0.805124 -0.568357 -0.0509623
30.766 5.861 5.713 -0.647575 0 -3.5 0.273557 0.625656 -0.730562 0.0850684
19.2162 2.99081 6.28888 -1.8585 0 0.306942 0.848733 0.0586305 -0.525562 0.673026
24.676 0.796 1.265 -1.65537 0 -0.9 0.0622882 0.996525 0.0553094 0.567337
3 138 182 91
3 89 182 138
3 91 89 138
3 182 89 196
3 17 89 91
3 121 196 89
3 83 182 196
3 17 121 89
3 196 121 78
3 182 83 56
3 83 196 25
3 118 78 121
3 196 78 174
3 56 83 25
3 25 196 45
3 78 118 174
3 121 186 118
3 196 174 80
3 25 34 56
3 196 177 45
3 109 25 45
3 174 118 68
3 118 186 177
3 80 174 204
3 196 80 67
3 25 165 34
3 177 196 131
3 45 177 186
3 25 109 165
3 45 37 109
3 118 177 68
3 68 149 174
3 174 149 204
3 80 204 113
3 67 80 113
3 143 196 67
3 131 196 143
3 132 177 131
3 38 45 186
3 165 109 37
3 38 37 45
3 68 177 132
3 149 68 132
3 149 12 204
3 142 113 204
3 171 67 113
3 67 81 143
3 75 131 143
3 131 75 132
3 37 41 165
3 132 66 149
3 149 66 12
3 74 204 12
3 142 27 113
3 142 204 178
3 171 81 67
3 113 27 171
3 81 200 143
3 183 75 143
3 75 66 132
3 5 12 66
3 144 204 74
3 5 74 12
3 60 27 142
3 178 204 144
3 142 178 44
3 58 81 171
3 171 27 60
3 195 200 81
3 166 143 200
3 66 75 183
3 183 143 166
3 66 100 5
3 160 144 74
3 95 74 5
3 60 142 201
3 144 73 178
3 44 178 209
3 209 142 44
3 58 152 81
3 171 122 58
3 60 122 171
3 200 195 166
3 152 195 81
3 66 183 100
3 166 2 183
3 100 95 5
3 160 73 144
3 160 74 106
3 95 70 74
3 209 201 142
3 60 201 16
3 178 73 209
3 58 122 152
3 122 60 179
3 169 166 195
3 152 208 195
3 100 183 9
3 2 166 90
3 13 183 2
3 55 95 100
3 73 160 54
3 74 70 106
3 160 106 158
3 104 70 95
3 201 209 193
3 64 16 201
3 179 60 16
3 73 54 209
3 194 152 122
3 179 194 122
3 169 90 166
3 169 195 123
3 152 194 208
3 208 150 195
3 9 183 13
3 23 100 9
3 94 2 90
3 2 94 13
3 55 104 95
3 55 100 23
3 160 158 54
3 7 106 70
3 63 158 106
3 104 33 70
3 170 193 209
3 201 193 52
3 64 179 16
3 201 29 64
3 209 54 170
3 15 194 179
3 22 90 169
3 195 150 123
3 169 123 39
3 194 173 208
3 150 208 71
3 9 13 36
3 23 9 36
3 90 85 94
3 8 13 94
3 104 55 148
3 23 30 55
3 54 158 170
3 106 7 63
3 33 7 70
3 63 49 158
3 104 153 33
3 170 52 193
3 52 29 201
3 49 179 64
3 64 29 158
3 173 194 15
3 15 179 185
3 85 90 22
3 169 181 22
3 84 123 150
3 123 164 39
3 39 181 169
3 173 105 208
3 71 208 101
3 150 71 189
3 13 8 36
3 114 23 36
3 94 85 6
3 6 8 94
3 30 148 55
3 104 148 153
3 30 23 114
3 158 29 170
3 7 145 63
3 7 33 145
3 49 63 210
3 158 49 64
3 153 197 33
3 170 29 52
3 108 179 49
3 173 15 185
3 179 108 185
3 22 119 85
3 181 126 22
3 123 84 48
3 150 189 84
3 123 48 164
3 164 146 39
3 146 181 39
3 125 105 173
3 208 105 101
3 71 101 189
3 114 36 8
3 6 85 119
3 6 191 8
3 151 148 30
3 148 3 153
3 114 151 30
3 210 63 145
3 33 197 145
3 49 210 108
3 188 197 153
3 173 185 124
3 185 108 199
3 26 119 22
3 126 181 14
3 126 26 22
3 84 180 48
3 189 180 84
3 164 48 175
3 175 146 164
3 24 181 146
3 125 1 105
3 125 173 124
3 105 110 101
3 189 101 79
3 191 114 8
3 119 86 6
3 86 191 6
3 148 151 11
3 11 3 148
3 3 162 153
3 157 151 114
3 199 210 145
3 145 197 199
3 210 199 108
3 120 197 188
3 162 188 153
3 185 115 124
3 199 120 185
3 119 26 10
3 14 181 24
3 175 48 180
3 47 180 189
3 24 146 175
3 129 1 125
3 1 110 105
3 125 124 0
3 79 101 110
3 141 189 79
3 191 157 114
3 119 187 86
3 111 191 86
3 205 11 151
3 3 11 205
3 3 205 162
3 57 151 157
3 120 199 197
3 188 139 120
3 69 188 162
3 185 120 115
3 115 156 124
3 119 10 187
3 189 141 47
3 1 129 110
3 207 129 125
3 207 0 124
3 207 125 0
3 79 110 176
3 141 79 176
3 157 191 167
3 111 86 187
3 172 191 111
3 205 151 18
3 69 162 205
3 18 151 57
3 57 157 203
3 88 139 188
3 99 120 139
3 188 69 88
3 115 120 99
3 156 115 99
3 124 156 207
3 87 110 129
3 207 116 129
3 176 110 87
3 172 167 191
3 157 167 82
3 102 111 187
3 102 172 111
3 205 18 159
3 192 69 205
3 18 57 59
3 203 157 147
3 57 203 59
3 133 139 88
3 99 139 154
3 69 137 88
3 156 99 19
3 19 207 156
3 87 129 53
3 207 117 116
3 53 129 116
3 135 167 172
3 167 103 82
3 147 157 82
3 97 102 187
3 97 172 102
3 159 18 202
3 192 205 159
3 137 69 192
3 202 18 59
3 147 140 203
3 59 203 161
3 184 139 133
3 88 65 133
3 139 96 154
3 99 154 19
3 137 65 88
3 32 207 19
3 117 207 163
3 103 167 135
3 135 172 98
3 92 82 103
3 92 147 82
3 97 187 31
3 28 172 97
3 159 202 76
3 192 159 43
3 137 192 93
3 72 202 59
3 147 42 140
3 203 140 168
3 161 203 168
3 20 59 161
3 96 139 184
3 184 133 65
3 154 96 21
3 154 155 19
3 50 65 137
3 163 207 32
3 32 19 155
3 98 172 28
3 92 40 147
3 76 43 159
3 192 43 62
3 198 93 192
3 137 93 198
3 20 72 59
3 147 46 42
3 42 206 140
3 168 140 128
3 4 20 161
3 96 184 21
3 184 65 50
3 155 154 21
3 137 198 50
3 32 130 163
3 130 32 155
3 147 40 46
3 127 43 76
3 43 127 62
3 198 192 62
3 72 20 77
3 206 42 46
3 128 140 206
3 4 77 20
3 184 136 21
3 136 184 50
3 21 112 155
3 50 198 107
3 130 134 163
3 130 155 190
3 61 62 127
3 198 62 61
3 112 21 136
3 50 107 136
3 112 190 155
3 35 107 198
3 130 190 134
3 51 198 61
3 107 112 136
3 190 112 35
3 112 107 35
3 198 51 35
