ply
format ascii 1.0
comment Generated by PyMesh
element vertex 193
property float x
property float y
property float z
property float charge
property float hbond
property float hphob
property float nx
property float ny
property float nz
property float si
element face 341
property list uchar int vertex_indices
end_header
3.86 8.632 -19.426 -0.0219574 0 -0.434019 -0.15525 -0.484155 0.861099 -0.99992
4.9995 8.967 -10.8708 -2.29223 -0.0260102 3.14649 -0.639811 0.481509 0.598992 -0.999904
8.8355 8.97525 -19.4128 -0.33054 0 4.5 -0.00818042 0.869999 0.492985 0.999897
5.83425 6.1555 -19.9055 -0.88069 0 -0.9 -0.65405 -0.475544 0.588282 0.61116
15.3272 9.955 -16.1122 -0.310148 0 4.2 0.443815 0.427855 0.78738 -0.9999
17.8385 4.546 -9.6785 0.362867 0 2.8 0.181287 -0.481655 0.857405 -0.999887
3.27 -4.733 -17.014 -2.20722 -0.192953 -3.5 -0.76339 -0.270341 0.586645 -0.999906
11.0402 8.4615 -15.5212 -0.894531 0 4.5 -0.715104 0.697611 -0.0443235 0.191509
7.67375 -5.0495 -15.695 -0.262855 0 -0.8 0.600535 0.690776 0.402724 0.107135
4.68125 -2.39488 -13.2314 -1.25064 0 -0.9 -0.304079 -0.717511 0.626669 -0.752327
12.7083 5.8975 -7.887 -2.13994 0 2.8 0.703422 -0.71074 0.00679974 -0.677292
7.47538 8.82575 -6.16975 -3.78586 0 2.28829 -0.878319 0.335021 0.341053 -0.999867
17.9515 7.64125 -9.89775 0.748461 0 -0.8 0.538134 0.500486 0.678178 -0.99986
17.3608 2.79875 -19.549 -0.252249 0 -3.5 0.564932 0.0663191 0.822468 0.999892
16.17 8.6085 -16.3085 -0.294648 0 4.2 0.571434 0.429147 0.699497 0.999894
12.1026 6.00588 -9.53725 -1.93174 0 2.8 0.473838 -0.876165 0.0883821 0.514952
15.1652 -1.66387 -18.5147 -0.328074 0 -1.3 0.432099 -0.485573 0.759941 -0.652584
11.2203 0.184875 -13.7157 -0.868844 0 -0.901976 0.459841 -0.436113 0.773532 -0.618407
10.428 3.7065 -9.288 -2.14883 0 1.92164 0.626689 -0.763662 0.155181 -0.590484
9.737 7.7415 -3.93313 -2.48056 0 2.5 -0.892461 0.0596831 0.44716 0.539262
18.1464 2.79175 -13.0289 -0.601828 0 -0.7 -0.0451309 -0.991931 -0.118475 -0.999866
3.67875 1.4585 -21.8787 -0.367106 0 -3.5 -0.729261 0.498267 -0.468944 0.999891
11.0186 -3.48938 -21.6852 -0.0672507 0 -1.6 0.366479 -0.772923 0.51796 0.9999
9.6035 -7.0425 -13.858 -1.89937 -0.890635 4.2 0.582386 0.79633 -0.163356 0.999894
8.1695 8.46387 -8.74387 -4.23785 -0.0626303 -3.5 -0.89886 0.436941 -0.0336578 0.788799
8.08625 -5.71212 -14.3271 -0.387725 0 -0.8 0.477807 0.877507 0.0410038 -0.306179
7.74175 7.82175 -10.0616 -4.22927 -0.309092 -3.5 -0.705754 0.495904 0.505955 0.579367
13.5948 10.8982 -16.1978 -0.485522 -0.0873118 3.38313 -0.0801304 0.761334 0.643389 -0.999874
17.837 2.9845 -10.7017 2.6178 -0.735215 2.8 0.116114 -0.804458 0.58255 -0.999875
10.1195 7.98138 -2.48225 -2.48802 0 2.5 -0.930662 -0.0676317 0.359574 -0.131184
17.9837 7.6615 -11.5677 -0.372806 0 4.2 0.732744 0.677274 -0.0662318 -0.999905
14.5139 1.73187 -17.4056 -0.480495 0 -1.3 0.660024 -0.418208 0.624076 0.429115
4.71869 1.77369 -10.9689 -0.948453 0 2.3296 -0.439677 -0.0671743 0.89564 -0.638758
11.0818 -3.005 -18.0414 0.477396 0 -1.6 0.348471 -0.906831 0.237121 -0.604019
6.03894 9.84994 -11.9469 -1.86514 0 4.2 -0.389668 0.897924 0.204671 -0.621422
7.90781 7.31556 -14.1768 -1.38181 0 4.5 -0.158207 0.555201 -0.816531 0.291202
9.58044 -2.75075 -16.9201 -1.20425 -0.719338 -1.25455 0.208758 -0.827085 0.521872 -0.386029
5.56369 3.14 -15.9438 -0.954444 0 1.8827 -0.59597 0.689094 -0.412273 0.272239
10.2245 -6.11775 -19.4128 1.12087 0 -1.6 0.908272 0.25403 0.332431 -0.999864
9.69194 6.19788 -3.72994 -2.54394 0 1.99161 -0.837043 -0.327484 0.438307 -0.479856
14.2253 3.60525 -12.609 -2.577 -0.0992618 2.18056 -0.128766 -0.982154 0.137087 0.249295
3.82488 4.92088 -13.676 -1.17727 0 3.45416 -0.935041 0.299274 -0.190089 -0.999841
9.39006 5.48325 -5.665 -2.42584 0 -0.9 -0.499491 -0.69662 0.515005 -0.0993036
12.6777 6.55656 -0.851812 -2.42656 0 2.8 0.0662931 -0.369697 0.926785 -0.791063
16.8096 9.00706 -10.798 -2.25299 -0.466736 1.27312 0.558542 0.829415 0.0100865 -0.612403
13.4532 6.499 -4.491 -2.4213 0 2.8 0.880763 -0.43657 -0.183472 -0.244163
6.49363 5.01613 -14.8994 -1.11241 0 -0.9 -0.417529 0.458531 -0.784487 0.341686
13.201 10.427 -4.39 -2.39047 0 -0.8 0.745967 0.665925 -0.00876106 -0.44254
8.87156 8.09037 -17.8506 -0.525022 0 4.5 -0.29777 0.749703 0.590997 -0.122356
10.5722 7.135 -1.25863 -2.50409 0 2.76493 -0.682691 -0.256538 0.684194 -0.737083
17.627 1.349 -19.0585 -0.821494 -0.67672 -3.5 0.36159 0.0712322 0.929612 -0.999885
8.60931 9.68962 -10.3741 -1.95705 0 2.8 -0.423083 0.879662 0.217244 -0.163892
11.3939 4.83081 -8.48662 -2.37749 0 2.8 0.639107 -0.767668 -0.0471931 -0.201586
15.548 3.771 -16.23 0.510297 0 -1.3 0.554452 -0.775851 0.301063 0.447302
7.47356 7.44131 -7.79319 -4.35999 -0.344484 -3.5 -0.937863 0.340141 -0.0686893 -0.222906
11.6456 1.67206 -13.2673 -0.843736 0 -0.676764 0.497667 -0.579462 0.645407 0.036046
8.85388 -5.02063 -17.2898 -0.402356 0 0.303473 0.773729 0.376798 0.509281 -0.0897903
13.4174 5.37762 -2.02119 -2.44611 0 -0.9 0.704019 -0.648186 0.290192 -0.999857
1.363 -1.02575 -13.8986 -1.00736 0 2.40256 -0.907204 -0.0671179 0.415302 -0.999883
6.191 4.2685 -20.776 -0.799277 0 -0.9 -0.816155 -0.0840958 0.571681 0.763559
9.75781 -4.69475 -20.7629 0.0209621 0 -1.6 0.915556 -0.252862 0.312758 0.999859
4.67137 7.31825 -20.0184 -0.486022 0 -0.9 -0.535193 -0.393134 0.747672 -0.999866
10.1096 7.83925 -16.7123 -0.664093 0 4.5 -0.519731 0.783028 0.341683 0.475963
13.5445 8.03094 -0.866188 -2.39263 0 2.12641 0.680385 -0.103231 0.725548 -0.805528
14.6463 9.83875 -11.1025 -1.88378 -0.0409403 -0.0372877 0.12439 0.984525 -0.123438 -0.758526
7.74925 -5.6235 -12.149 -0.877708 0 0.450257 0.304636 0.945635 -0.113892 -0.999891
2.00388 0.843125 -18.8292 -1.15681 -0.716749 3.8 -0.929465 0.345375 0.129655 -0.668574
13.2105 5.50063 -10.9105 -2.46411 0 2.8 -0.247533 -0.650463 0.718071 0.598315
8.55619 7.353 -5.0935 -2.18081 0 2.5 -0.739431 -0.0955768 0.666414 -0.339157
9.01019 -0.422812 -13.0433 -0.799864 0 -0.743932 0.50889 -0.466629 0.723387 -0.318817
11.9788 -0.2455 -15.037 -0.698421 0 -1.3 0.711685 -0.520897 0.47135 -0.833834
18.0946 6.04594 -9.01625 0.356375 0 2.8 0.112974 -0.114603 0.986966 -0.999869
13.765 -0.1615 -17.5952 -0.248359 0 -1.3 0.434794 -0.2545 0.863819 0.124688
2.35525 -2.38156 -14.5799 -1.12222 -0.107854 -3.5 -0.677654 -0.705982 0.205849 -0.63735
2.59363 0.134188 -17.0833 -0.813404 0 3.8 -0.785288 0.615753 0.064582 0.138625
3.92025 0.981062 -12.1292 -0.860043 0 4.2 -0.805567 0.139227 0.575914 0.0828858
7.2185 9.3215 -18.9925 -0.275183 0 4.5 0.0633622 0.474253 0.878105 -0.999875
7.709 4.401 -16.1752 -0.374356 0 -0.9 -0.837983 0.510426 -0.193 0.758571
13.7483 9.07675 -4.93725 -2.38172 0 2.44111 0.98043 0.155096 -0.121252 -0.175226
10.5382 9.456 -19.1157 -0.505053 0 4.5 -0.356887 0.806723 0.470988 0.999854
11.4578 5.4535 -10.9782 -0.914566 0 2.8 0.586346 -0.731577 0.34784 0.999852
5.61037 9.55538 -18.5912 -0.614314 0 2.01422 -0.169985 -0.199904 0.964958 -0.999907
15.7573 1.47544 -18.3409 -0.187708 0.670619 -3.5 0.515709 -0.121927 0.848044 0.120107
7.58581 10.0853 -12.2367 -1.81137 0 4.2 -0.0860753 0.988126 -0.127275 -0.681543
9.18738 -6.25625 -12.1847 -0.389525 0 1.8 0.375493 0.871282 -0.316028 -0.99994
10.0186 7.16919 -14.491 -1.15127 0 4.5 -0.421973 0.797447 -0.431296 0.9053
6.99388 6.197 -8.98075 -3.7883 -0.30531 -2.07236 -0.910508 0.1727 0.3757 -0.0976583
13.5295 -3.4325 -20.998 -0.207113 0 -1.6 -0.0452683 -0.917638 0.394831 -0.999887
11.3374 10.5442 -8.82288 -2.01021 0 4.2 0.0831823 0.939806 -0.331429 -0.332372
15.9964 4.23594 -9.46319 -2.54597 0 2.8 -0.178272 -0.545853 0.818696 -0.765418
8.926 -6.97625 -15.661 -0.183523 0 4.2 0.828255 0.534202 0.169177 0.999868
8.94837 9.13175 -5.21944 -2.45527 0 2.5 -0.798572 0.376397 0.469689 0.0558664
15.9143 3.13869 -13.0914 -5.45244 -0.576565 -1.3 -0.193136 -0.928906 -0.315962 -0.238967
15.5527 5.70075 -8.80775 -2.28864 0 2.8 0.0305278 -0.0990298 0.994616 -0.578448
8.02 0.6105 -12.0001 -0.921105 0 -0.7 0.608573 -0.0891563 0.788473 -0.812819
1.83444 -0.647937 -19.6365 -0.51248 -0.0652654 2.11221 -0.99448 0.102382 0.0229832 -0.999869
13.6823 9.00175 -13.3025 -1.33669 0 4.2 0.189006 0.971302 -0.14439 0.235083
2.339 0.159438 -12.9886 -1.06329 0.189768 2.85984 -0.718439 0.327414 0.613714 -0.652409
12.5039 -2.577 -19.3372 0.0909753 0 -1.6 0.0243818 -0.957877 0.286142 0.178276
4.42875 2.782 -21.814 -0.097944 0 -0.9 -0.606897 0.718034 0.340739 0.99983
15.4541 9.3375 -9.32844 -2.12038 -0.798579 -0.129761 0.258209 0.832971 0.489374 -0.999806
15.9688 -2.1315 -19.8314 -0.677144 -0.30617 4.5 0.455158 -0.75688 0.469003 -0.999898
14.4806 3.59581 -10.7369 -5.12104 0 2.8 -0.481101 -0.695096 0.534213 -0.502802
11.519 4.96731 -6.46206 -2.39645 0 -0.9 0.346854 -0.935472 0.0677114 -0.323854
17.1906 4.73475 -18.7017 0.180106 0.0283682 -3.5 0.75316 -0.446117 0.483456 0.999886
12.1406 11.4142 -6.67387 -2.16934 0 -0.8 0.350067 0.90425 -0.244508 -0.782612
5.11025 5.09263 -21.4805 -0.371237 0 -0.9 -0.626345 -0.31028 0.715135 0.999919
8.17394 -2.18806 -16.0987 -3.13045 -0.908645 -0.8 0.348547 -0.804475 0.480973 0.693248
12.4065 9.89725 -17.928 -2.23977 -0.284524 4.5 -0.631235 0.761547 0.146932 0.999831
1.99563 -2.98738 -17.7313 -0.819439 0 -3.5 -0.936902 -0.194448 0.290526 -0.999893
6.441 8.06044 -18.4911 -0.626719 0 2.15715 -0.258584 0.0725062 0.963264 -0.318792
12.9714 2.72284 -13.0178 -0.991246 0 -1.3 0.432236 -0.749684 0.501144 -0.4308
5.01578 4.23334 -15.0561 -1.30975 0 2.68318 -0.535257 0.387025 -0.750807 -0.562973
4.80572 8.96566 -12.5197 -1.91701 0 4.05925 -0.758524 0.59505 -0.265625 -0.910419
13.5253 9.3375 -9.8375 -1.30225 0 -0.8 0.264119 0.962921 0.0549862 0.195494
17.8969 7.3095 -13.553 -0.733887 0 4.2 0.469349 0.83816 -0.277848 -0.999851
12.6178 5.10194 -4.003 -2.43312 0 0.228857 0.443847 -0.892242 -0.0830858 -0.539718
5.6685 -3.90212 -14.9578 -0.734389 0 -0.8 0.194922 -0.481887 0.854278 0.0374015
18.356 3.1275 -14.7405 0.39391 0 -3.29607 -0.357305 -0.810203 -0.464655 -0.999887
15.9056 3.39166 -18.0743 -0.0858423 0 -3.5 0.67879 -0.589342 0.438086 0.433594
13.3317 1.70987 -15.5324 -1.31314 0 -1.3 0.72284 -0.537747 0.43397 0.250982
11.2926 11.8656 -4.66994 -1.74738 0 -0.8 0.0676927 0.993982 0.0861266 -0.830911
9.70063 -6.79375 -17.9625 0.120436 0 4.2 0.882858 0.278003 0.378519 0.999892
13.522 6.81 -9.22375 -1.84748 0 2.8 0.253831 -0.838426 0.482298 0.370116
10.621 5.04063 -4.16962 -2.71203 0 -0.9 -0.338812 -0.927284 0.159221 -0.573221
14.2908 8.93697 -14.9748 -0.764095 0 4.2 0.411298 0.783969 0.465002 0.296672
1.48616 -0.417188 -15.3452 -0.683833 0 2.41421 -0.973465 0.0554188 -0.222022 -0.801513
6.81234 9.24781 -10.7561 -2.28958 -0.826521 -3.5 -0.296471 0.625546 0.721663 -0.246728
7.51206 4.78781 -7.40897 -2.57023 0 -0.920913 -0.729795 -0.474333 0.49235 -0.634347
11.2781 8.8335 -0.535156 -2.59743 -0.0365852 2.36718 -0.437589 0.103438 0.893206 -0.999834
7.50356 6.5495 -6.54066 -2.63106 0 2.5 -0.88109 -0.157262 0.446038 -0.525477
4.83234 6.17953 -13.3976 -1.33492 0 -0.635374 -0.716905 0.406713 -0.566243 -0.139152
14.1212 7.58503 -3.67188 -2.44108 0 2.8 0.979082 -0.186277 -0.0818512 -0.767765
15.8628 8.52337 -12.4008 -1.72322 0 4.2 0.363369 0.883529 -0.295532 0.355509
13.8831 -2.50125 -18.572 -0.311954 0 -1.6 0.213499 -0.761472 0.612028 -0.587751
5.16822 7.23809 -10.8329 -2.06719 0 -2.96177 -0.662116 0.0879266 0.744225 -0.297983
2.7805 2.16609 -19.73 -0.42957 0 3.8 -0.679803 0.733375 0.00537097 -0.868356
14.3452 3.60113 -14.4762 -2.87428 -0.078964 -1.3 0.448432 -0.88729 0.107823 0.446308
16.6426 7.81337 -8.97775 -2.14572 -0.989482 -0.8 0.484655 0.190225 0.85377 -0.390773
9.17406 -3.574 -18.2553 -0.421674 -0.402027 -1.21246 0.709965 -0.479823 0.51548 0.328056
2.51525 0.994531 -14.7072 -0.874677 0 3.8 -0.750282 0.660116 -0.0363864 -0.718982
6.76184 2.92403 -19.3334 1.78127 0.222976 -0.9 -0.715285 0.660174 0.229213 0.774876
5.10584 -0.939562 -11.9035 0.111809 0 -0.9 -0.27518 -0.521089 0.807925 -0.676466
6.75803 2.32025 -11.0525 -1.05207 0 -0.757201 0.09109 -0.290759 0.95245 0.0538796
7.22466 6.55303 -17.9318 -0.724413 0 -0.9 -0.728097 0.0910331 0.679403 -0.0276388
16.6825 4.459 -15.0445 2.49706 0.139877 -1.3 0.0021256 -0.955438 -0.295185 0.65929
15.9088 2.63916 -11.1072 -4.54656 -0.0363079 2.8 -0.215555 -0.955612 0.200854 -0.979309
8.75541 9.48506 -13.2403 -1.72428 0 4.01984 0.0495889 0.765786 -0.641181 -0.59904
3.25522 -1.03212 -12.7483 -0.53215 0.760703 -0.9 -0.477989 -0.442992 0.758476 -0.456733
10.9342 -2.45631 -20.084 -0.131329 0 -1.6 0.301969 -0.927207 0.221588 0.999837
10.033 9.8045 -2.66159 -2.27852 0 2.5 -0.756595 0.384462 0.528917 -0.527672
8.377 -1.59331 -14.3158 -0.927264 0 -0.8 0.452351 -0.817106 0.357374 0.0827705
10.4524 8.68731 -13.3148 -1.40353 0 2.8 -0.235654 0.868242 -0.436604 0.207622
6.6075 -5.91638 -13.3737 -0.840079 0 -0.887693 0.132458 0.853777 0.503506 0.999864
4.34353 1.85969 -16.5612 -0.793192 0 3.8 -0.671708 0.729521 -0.12887 0.52061
12.7401 6.04472 -5.94131 -2.37158 0 2.8 0.735897 -0.668216 -0.109286 0.283355
10.0344 3.12644 -11.1978 -1.40734 0 -0.0837754 0.322751 -0.792131 0.518035 -0.0667969
18.0298 4.61613 -16.4741 0.61004 0.058389 -3.5 0.24344 -0.964946 -0.0980613 0.999881
6.28578 4.86522 -10.4675 0.743675 0.201119 -1.3 -0.701128 -0.20742 0.6822 0.174663
7.07544 3.64525 -17.6606 -0.636859 0 -0.9 -0.846308 0.530409 0.0492874 0.360658
8.59122 9.77563 -7.80975 -2.42071 0 4.2 -0.674322 0.732868 -0.0905184 -0.292343
12.7908 9.94056 -0.727719 -2.59509 0 1.46986 0.156445 0.627207 0.762979 -0.999859
6.7205 -3.8635 -16.2006 0.414035 0.176508 -0.8 0.702762 0.247778 0.666882 0.554538
4.1575 -3.68337 -15.7405 -1.84792 -0.597894 -2.96512 -0.586741 -0.529384 0.612771 0.292448
17.353 -0.48425 -19.4007 -0.149131 0.921589 4.5 0.457186 -0.28491 0.8425 -0.999843
2.23375 -2.02472 -16.319 -1.10502 -0.157474 -2.44975 -0.955596 -0.243798 0.165527 -0.0975358
6.65516 -2.26319 -12.6712 -1.23172 0 -0.863576 0.22784 -0.747305 0.624199 -0.671553
10.5632 -1.33263 -14.7622 -0.625925 0 -1.3 0.357634 -0.786916 0.502852 -0.692407
12.2659 10.958 -2.53012 -2.56685 0 -0.793564 0.14667 0.897955 0.414927 -0.553201
6.00809 7.82672 -14.0573 -1.57392 0 -0.9 -0.315225 0.369359 -0.87419 -0.693821
11.9952 9.41291 -14.7622 -0.970472 0 2.90312 -0.292218 0.949034 0.118083 -0.278087
4.55538 -5.35131 -15.0263 -0.772186 0 -0.9 -0.61005 0.233238 0.757257 -0.999912
4.20116 3.17537 -11.5026 -1.04481 0 4.2 -0.764801 0.0616711 0.641309 -0.48068
10.8013 10.0306 -10.7427 -1.7703 0 2.8 0.0614299 0.962488 -0.26428 -0.40699
12.0793 9.33122 -11.9143 -1.53842 0 2.8 -0.0249575 0.990081 -0.138266 0.0641926
14.2399 9.46037 -2.33941 -2.46402 -0.10845 1.01587 0.901576 0.407682 0.14476 -0.999825
9.06631 1.75969 -12.8309 -0.542456 0.270798 -0.7 0.378631 -0.386432 0.841017 0.628037
4.44303 5.36516 -11.7455 -1.03096 0 2.8 -0.894233 0.180955 0.409394 -0.398455
9.65469 11.0964 -5.98894 -2.20703 0 4.2 -0.571066 0.811872 -0.121442 -0.599018
11.9113 -1.4295 -16.9515 -0.259317 0 -1.3 0.531158 -0.640092 0.555115 0.157007
14.1015 7.67225 -7.47475 -2.1898 0 2.8 0.937761 -0.183748 0.294689 -0.202912
6.60638 -0.566391 -11.2141 -0.907294 0 -0.9 0.226405 -0.348891 0.909404 -0.825332
12.3289 4.05289 -12.0214 -1.42272 0 2.8 0.0809979 -0.614908 0.784428 0.236502
7.57014 3.79969 -9.398 -2.00974 -0.0332251 -1.28236 -0.408958 -0.784443 0.466264 -0.176602
2.41006 0.666875 -20.9097 -0.308469 0 -3.5 -0.869642 0.391236 -0.301094 -0.999886
16.8821 7.2235 -15.5985 -0.18306 0 4.2 0.527986 0.846217 0.0717405 0.999851
4.59956 2.28081 -18.6023 -0.633266 0 -0.9 -0.459694 0.884368 0.0810834 0.0831986
11.3404 5.36475 -1.71719 -2.64067 0 1.3716 -0.440722 -0.750762 0.492057 -0.999822
8.36578 6.35569 -15.946 -0.909469 0 4.5 -0.668821 0.743413 0.00397673 0.111006
3.873 2.31716 -13.7815 -0.951883 0 3.8 -0.899095 0.425049 -0.1047 0.0499999
9.10684 3.92384 -7.56403 -2.20366 0 -0.9 0.0342462 -0.915118 0.401729 -0.633529
13.547 9.76475 -7.13725 -2.2517 0 -0.8 0.825787 0.549191 -0.128319 -0.455011
9.74166 11.0052 -3.8788 -2.56296 -0.956623 0.373712 -0.749126 0.530289 0.396994 -0.999811
3 163 165 73
3 163 6 165
3 126 73 165
3 163 73 148
3 6 163 171
3 165 6 109
3 126 58 73
3 126 165 74
3 73 58 148
3 9 163 148
3 117 171 163
3 165 109 95
3 140 58 126
3 165 66 74
3 140 126 74
3 97 148 58
3 9 117 163
3 9 148 142
3 153 171 117
3 95 66 165
3 58 140 97
3 136 74 66
3 74 154 140
3 97 75 148
3 9 166 117
3 148 32 142
3 9 142 166
3 153 117 162
3 184 66 95
3 140 189 97
3 74 136 186
3 136 66 184
3 74 186 154
3 140 154 189
3 189 75 97
3 75 32 148
3 117 166 151
3 32 181 142
3 181 166 142
3 117 107 162
3 153 162 8
3 99 186 136
3 21 136 184
3 186 37 154
3 189 154 37
3 189 172 75
3 172 32 75
3 151 166 69
3 151 107 117
3 143 181 32
3 181 69 166
3 139 162 107
3 56 8 162
3 8 25 153
3 186 99 141
3 99 136 21
3 159 37 186
3 112 189 37
3 41 172 189
3 172 143 32
3 167 151 69
3 167 107 151
3 143 94 181
3 69 181 94
3 56 162 139
3 139 107 36
3 90 8 56
3 25 8 90
3 25 65 153
3 99 59 141
3 159 186 141
3 77 37 159
3 41 189 112
3 37 46 112
3 177 172 41
3 158 143 172
3 167 69 17
3 36 107 167
3 176 94 143
3 94 176 69
3 38 56 139
3 33 139 36
3 90 56 122
3 25 90 23
3 25 23 65
3 106 59 99
3 159 141 59
3 37 77 46
3 77 159 144
3 112 131 41
3 112 46 131
3 158 172 177
3 177 41 131
3 158 183 143
3 17 69 176
3 167 17 70
3 167 179 36
3 156 176 143
3 38 122 56
3 38 139 60
3 33 149 139
3 179 33 36
3 84 65 23
3 59 106 3
3 159 59 144
3 46 77 188
3 77 144 188
3 169 131 46
3 177 135 158
3 113 177 131
3 158 128 183
3 156 143 183
3 176 55 17
3 17 55 70
3 167 70 179
3 55 176 156
3 60 139 149
3 98 149 33
3 33 179 98
3 61 3 106
3 3 144 59
3 188 35 46
3 188 144 48
3 113 131 169
3 46 35 169
3 135 177 113
3 86 158 135
3 128 158 86
3 128 190 183
3 183 190 156
3 70 55 120
3 179 70 120
3 55 156 182
3 60 149 22
3 149 98 87
3 179 134 98
3 61 144 3
3 85 35 188
3 48 144 76
3 62 188 48
3 147 113 169
3 147 169 35
3 1 135 113
3 86 135 26
3 86 130 128
3 42 190 128
3 156 190 18
3 55 137 120
3 179 120 31
3 156 80 182
3 55 182 111
3 87 22 149
3 134 87 98
3 72 134 179
3 144 61 110
3 35 85 147
3 85 188 62
3 144 110 76
3 48 76 2
3 48 79 62
3 83 113 147
3 1 127 135
3 113 127 1
3 135 127 26
3 54 86 26
3 130 86 54
3 42 128 130
3 103 190 42
3 52 18 190
3 18 80 156
3 137 55 111
3 120 137 53
3 53 31 120
3 72 179 31
3 80 67 182
3 182 40 111
3 134 101 87
3 16 134 72
3 61 81 110
3 147 85 152
3 7 85 62
3 76 110 81
3 48 2 79
3 108 62 79
3 113 83 34
3 147 51 83
3 34 127 113
3 127 51 26
3 54 26 24
3 54 11 130
3 130 68 42
3 103 52 190
3 124 103 42
3 80 18 52
3 111 40 137
3 137 145 53
3 119 31 53
3 31 82 72
3 67 80 15
3 102 182 67
3 182 102 40
3 16 101 134
3 16 72 164
3 81 61 0
3 7 152 85
3 173 147 152
3 7 62 108
3 127 34 83
3 147 173 51
3 127 83 51
3 24 26 51
3 160 54 24
3 160 11 54
3 68 130 11
3 39 42 68
3 10 52 103
3 103 124 116
3 39 124 42
3 80 52 15
3 137 40 92
3 92 145 137
3 53 145 157
3 119 82 31
3 53 157 119
3 164 72 82
3 67 15 123
3 89 102 67
3 40 102 146
3 164 101 16
3 170 152 7
3 152 174 173
3 7 108 170
3 173 160 51
3 24 51 160
3 160 91 11
3 11 91 68
3 39 68 19
3 123 52 10
3 10 103 155
3 187 116 124
3 103 116 155
3 39 187 124
3 123 15 52
3 40 146 92
3 145 92 118
3 118 157 145
3 104 82 119
3 119 157 104
3 82 50 164
3 67 123 89
3 102 89 146
3 174 152 170
3 173 174 114
3 27 170 108
3 160 173 88
3 160 178 91
3 91 19 68
3 19 29 39
3 123 10 180
3 155 180 10
3 116 187 57
3 116 45 155
3 39 29 187
3 146 20 92
3 92 20 118
3 104 13 82
3 82 13 50
3 93 89 123
3 89 28 146
3 174 170 96
3 174 64 114
3 88 173 114
3 125 170 27
3 178 160 88
3 178 192 91
3 192 19 91
3 19 150 29
3 180 138 123
3 45 180 155
3 43 57 187
3 116 57 45
3 49 187 29
3 28 20 146
3 89 93 71
3 138 93 123
3 89 5 28
3 125 96 170
3 174 96 64
3 100 114 64
3 88 114 191
3 4 125 27
3 105 178 88
3 178 121 192
3 150 19 192
3 150 129 29
3 138 180 100
3 78 180 45
3 63 57 43
3 43 187 49
3 45 57 132
3 129 49 29
3 12 71 93
3 89 71 5
3 138 12 93
3 125 133 96
3 133 64 96
3 100 180 114
3 100 64 44
3 180 191 114
3 88 191 105
3 125 4 14
3 121 178 105
3 121 168 192
3 150 192 168
3 161 129 150
3 100 44 138
3 191 180 78
3 78 45 132
3 63 132 57
3 129 63 43
3 129 43 49
3 44 12 138
3 185 133 125
3 64 133 44
3 47 105 191
3 14 185 125
3 47 121 105
3 121 47 168
3 161 150 168
3 161 63 129
3 47 191 78
3 175 78 132
3 175 132 63
3 44 30 12
3 133 185 115
3 133 115 44
3 47 175 168
3 168 175 161
3 161 175 63
3 47 78 175
3 44 115 30
